<?xml version='1.0' encoding='UTF-8'?>
<title>ThePawLight instagram_bio</title>
<desc>Instagram bio/story link → ThePawLight brand landing page: https://thepawlight.com/?utm_source=instagram&amp;utm_medium=social&amp;utm_campaign=pawlight_launch&amp;utm_content=bio</desc>
<svg width="63.6mm" height="63.6mm" version="1.1" viewBox="0 0 63.6 63.6" xmlns="http://www.w3.org/2000/svg"><path d="M4.8,4.8H6V6H4.8zM6,4.8H7.2V6H6zM7.2,4.8H8.4V6H7.2zM8.4,4.8H9.6V6H8.4zM9.6,4.8H10.8V6H9.6zM10.8,4.8H12V6H10.8zM12,4.8H13.2V6H12zM15.6,4.8H16.8V6H15.6zM24,4.8H25.2V6H24zM27.6,4.8H28.8V6H27.6zM32.4,4.8H33.6V6H32.4zM34.8,4.8H36V6H34.8zM37.2,4.8H38.4V6H37.2zM39.6,4.8H40.8V6H39.6zM40.8,4.8H42V6H40.8zM42,4.8H43.2V6H42zM43.2,4.8H44.4V6H43.2zM44.4,4.8H45.6V6H44.4zM48,4.8H49.2V6H48zM50.4,4.8H51.6V6H50.4zM51.6,4.8H52.8V6H51.6zM52.8,4.8H54V6H52.8zM54,4.8H55.2V6H54zM55.2,4.8H56.4V6H55.2zM56.4,4.8H57.6V6H56.4zM57.6,4.8H58.8V6H57.6zM4.8,6H6V7.2H4.8zM12,6H13.2V7.2H12zM19.2,6H20.4V7.2H19.2zM21.6,6H22.8V7.2H21.6zM22.8,6H24V7.2H22.8zM25.2,6H26.4V7.2H25.2zM27.6,6H28.8V7.2H27.6zM28.8,6H30V7.2H28.8zM33.6,6H34.8V7.2H33.6zM36,6H37.2V7.2H36zM38.4,6H39.6V7.2H38.4zM42,6H43.2V7.2H42zM44.4,6H45.6V7.2H44.4zM46.8,6H48V7.2H46.8zM50.4,6H51.6V7.2H50.4zM57.6,6H58.8V7.2H57.6zM4.8,7.2H6V8.4H4.8zM7.2,7.2H8.4V8.4H7.2zM8.4,7.2H9.6V8.4H8.4zM9.6,7.2H10.8V8.4H9.6zM12,7.2H13.2V8.4H12zM14.4,7.2H15.6V8.4H14.4zM16.8,7.2H18V8.4H16.8zM18,7.2H19.2V8.4H18zM20.4,7.2H21.6V8.4H20.4zM22.8,7.2H24V8.4H22.8zM27.6,7.2H28.8V8.4H27.6zM28.8,7.2H30V8.4H28.8zM32.4,7.2H33.6V8.4H32.4zM37.2,7.2H38.4V8.4H37.2zM38.4,7.2H39.6V8.4H38.4zM39.6,7.2H40.8V8.4H39.6zM43.2,7.2H44.4V8.4H43.2zM44.4,7.2H45.6V8.4H44.4zM46.8,7.2H48V8.4H46.8zM50.4,7.2H51.6V8.4H50.4zM52.8,7.2H54V8.4H52.8zM54,7.2H55.2V8.4H54zM55.2,7.2H56.4V8.4H55.2zM57.6,7.2H58.8V8.4H57.6zM4.8,8.4H6V9.6H4.8zM7.2,8.4H8.4V9.6H7.2zM8.4,8.4H9.6V9.6H8.4zM9.6,8.4H10.8V9.6H9.6zM12,8.4H13.2V9.6H12zM14.4,8.4H15.6V9.6H14.4zM16.8,8.4H18V9.6H16.8zM18,8.4H19.2V9.6H18zM21.6,8.4H22.8V9.6H21.6zM24,8.4H25.2V9.6H24zM25.2,8.4H26.4V9.6H25.2zM26.4,8.4H27.6V9.6H26.4zM27.6,8.4H28.8V9.6H27.6zM30,8.4H31.2V9.6H30zM31.2,8.4H32.4V9.6H31.2zM32.4,8.4H33.6V9.6H32.4zM34.8,8.4H36V9.6H34.8zM39.6,8.4H40.8V9.6H39.6zM40.8,8.4H42V9.6H40.8zM42,8.4H43.2V9.6H42zM46.8,8.4H48V9.6H46.8zM48,8.4H49.2V9.6H48zM50.4,8.4H51.6V9.6H50.4zM52.8,8.4H54V9.6H52.8zM54,8.4H55.2V9.6H54zM55.2,8.4H56.4V9.6H55.2zM57.6,8.4H58.8V9.6H57.6zM4.8,9.6H6V10.8H4.8zM7.2,9.6H8.4V10.8H7.2zM8.4,9.6H9.6V10.8H8.4zM9.6,9.6H10.8V10.8H9.6zM12,9.6H13.2V10.8H12zM14.4,9.6H15.6V10.8H14.4zM15.6,9.6H16.8V10.8H15.6zM16.8,9.6H18V10.8H16.8zM18,9.6H19.2V10.8H18zM19.2,9.6H20.4V10.8H19.2zM21.6,9.6H22.8V10.8H21.6zM22.8,9.6H24V10.8H22.8zM27.6,9.6H28.8V10.8H27.6zM28.8,9.6H30V10.8H28.8zM30,9.6H31.2V10.8H30zM31.2,9.6H32.4V10.8H31.2zM32.4,9.6H33.6V10.8H32.4zM33.6,9.6H34.8V10.8H33.6zM38.4,9.6H39.6V10.8H38.4zM40.8,9.6H42V10.8H40.8zM43.2,9.6H44.4V10.8H43.2zM45.6,9.6H46.8V10.8H45.6zM46.8,9.6H48V10.8H46.8zM48,9.6H49.2V10.8H48zM50.4,9.6H51.6V10.8H50.4zM52.8,9.6H54V10.8H52.8zM54,9.6H55.2V10.8H54zM55.2,9.6H56.4V10.8H55.2zM57.6,9.6H58.8V10.8H57.6zM4.8,10.8H6V12H4.8zM12,10.8H13.2V12H12zM14.4,10.8H15.6V12H14.4zM15.6,10.8H16.8V12H15.6zM16.8,10.8H18V12H16.8zM20.4,10.8H21.6V12H20.4zM24,10.8H25.2V12H24zM25.2,10.8H26.4V12H25.2zM28.8,10.8H30V12H28.8zM33.6,10.8H34.8V12H33.6zM34.8,10.8H36V12H34.8zM38.4,10.8H39.6V12H38.4zM44.4,10.8H45.6V12H44.4zM50.4,10.8H51.6V12H50.4zM57.6,10.8H58.8V12H57.6zM4.8,12H6V13.2H4.8zM6,12H7.2V13.2H6zM7.2,12H8.4V13.2H7.2zM8.4,12H9.6V13.2H8.4zM9.6,12H10.8V13.2H9.6zM10.8,12H12V13.2H10.8zM12,12H13.2V13.2H12zM14.4,12H15.6V13.2H14.4zM16.8,12H18V13.2H16.8zM19.2,12H20.4V13.2H19.2zM21.6,12H22.8V13.2H21.6zM24,12H25.2V13.2H24zM26.4,12H27.6V13.2H26.4zM28.8,12H30V13.2H28.8zM31.2,12H32.4V13.2H31.2zM33.6,12H34.8V13.2H33.6zM36,12H37.2V13.2H36zM38.4,12H39.6V13.2H38.4zM40.8,12H42V13.2H40.8zM43.2,12H44.4V13.2H43.2zM45.6,12H46.8V13.2H45.6zM48,12H49.2V13.2H48zM50.4,12H51.6V13.2H50.4zM51.6,12H52.8V13.2H51.6zM52.8,12H54V13.2H52.8zM54,12H55.2V13.2H54zM55.2,12H56.4V13.2H55.2zM56.4,12H57.6V13.2H56.4zM57.6,12H58.8V13.2H57.6zM14.4,13.2H15.6V14.4H14.4zM15.6,13.2H16.8V14.4H15.6zM18,13.2H19.2V14.4H18zM20.4,13.2H21.6V14.4H20.4zM27.6,13.2H28.8V14.4H27.6zM28.8,13.2H30V14.4H28.8zM33.6,13.2H34.8V14.4H33.6zM34.8,13.2H36V14.4H34.8zM36,13.2H37.2V14.4H36zM37.2,13.2H38.4V14.4H37.2zM38.4,13.2H39.6V14.4H38.4zM39.6,13.2H40.8V14.4H39.6zM43.2,13.2H44.4V14.4H43.2zM46.8,13.2H48V14.4H46.8zM48,13.2H49.2V14.4H48zM4.8,14.4H6V15.6H4.8zM7.2,14.4H8.4V15.6H7.2zM8.4,14.4H9.6V15.6H8.4zM9.6,14.4H10.8V15.6H9.6zM10.8,14.4H12V15.6H10.8zM12,14.4H13.2V15.6H12zM15.6,14.4H16.8V15.6H15.6zM20.4,14.4H21.6V15.6H20.4zM22.8,14.4H24V15.6H22.8zM25.2,14.4H26.4V15.6H25.2zM28.8,14.4H30V15.6H28.8zM30,14.4H31.2V15.6H30zM31.2,14.4H32.4V15.6H31.2zM32.4,14.4H33.6V15.6H32.4zM33.6,14.4H34.8V15.6H33.6zM36,14.4H37.2V15.6H36zM37.2,14.4H38.4V15.6H37.2zM42,14.4H43.2V15.6H42zM44.4,14.4H45.6V15.6H44.4zM50.4,14.4H51.6V15.6H50.4zM51.6,14.4H52.8V15.6H51.6zM52.8,14.4H54V15.6H52.8zM54,14.4H55.2V15.6H54zM55.2,14.4H56.4V15.6H55.2zM4.8,15.6H6V16.8H4.8zM6,15.6H7.2V16.8H6zM9.6,15.6H10.8V16.8H9.6zM10.8,15.6H12V16.8H10.8zM13.2,15.6H14.4V16.8H13.2zM18,15.6H19.2V16.8H18zM19.2,15.6H20.4V16.8H19.2zM20.4,15.6H21.6V16.8H20.4zM21.6,15.6H22.8V16.8H21.6zM26.4,15.6H27.6V16.8H26.4zM27.6,15.6H28.8V16.8H27.6zM28.8,15.6H30V16.8H28.8zM31.2,15.6H32.4V16.8H31.2zM32.4,15.6H33.6V16.8H32.4zM33.6,15.6H34.8V16.8H33.6zM34.8,15.6H36V16.8H34.8zM37.2,15.6H38.4V16.8H37.2zM40.8,15.6H42V16.8H40.8zM42,15.6H43.2V16.8H42zM43.2,15.6H44.4V16.8H43.2zM46.8,15.6H48V16.8H46.8zM48,15.6H49.2V16.8H48zM52.8,15.6H54V16.8H52.8zM54,15.6H55.2V16.8H54zM55.2,15.6H56.4V16.8H55.2zM56.4,15.6H57.6V16.8H56.4zM57.6,15.6H58.8V16.8H57.6zM7.2,16.8H8.4V18H7.2zM12,16.8H13.2V18H12zM13.2,16.8H14.4V18H13.2zM14.4,16.8H15.6V18H14.4zM15.6,16.8H16.8V18H15.6zM16.8,16.8H18V18H16.8zM18,16.8H19.2V18H18zM19.2,16.8H20.4V18H19.2zM24,16.8H25.2V18H24zM25.2,16.8H26.4V18H25.2zM27.6,16.8H28.8V18H27.6zM31.2,16.8H32.4V18H31.2zM33.6,16.8H34.8V18H33.6zM36,16.8H37.2V18H36zM39.6,16.8H40.8V18H39.6zM42,16.8H43.2V18H42zM44.4,16.8H45.6V18H44.4zM45.6,16.8H46.8V18H45.6zM46.8,16.8H48V18H46.8zM48,16.8H49.2V18H48zM49.2,16.8H50.4V18H49.2zM50.4,16.8H51.6V18H50.4zM51.6,16.8H52.8V18H51.6zM54,16.8H55.2V18H54zM55.2,16.8H56.4V18H55.2zM56.4,16.8H57.6V18H56.4zM4.8,18H6V19.2H4.8zM6,18H7.2V19.2H6zM7.2,18H8.4V19.2H7.2zM10.8,18H12V19.2H10.8zM13.2,18H14.4V19.2H13.2zM16.8,18H18V19.2H16.8zM21.6,18H22.8V19.2H21.6zM22.8,18H24V19.2H22.8zM24,18H25.2V19.2H24zM25.2,18H26.4V19.2H25.2zM32.4,18H33.6V19.2H32.4zM33.6,18H34.8V19.2H33.6zM34.8,18H36V19.2H34.8zM36,18H37.2V19.2H36zM37.2,18H38.4V19.2H37.2zM43.2,18H44.4V19.2H43.2zM48,18H49.2V19.2H48zM49.2,18H50.4V19.2H49.2zM50.4,18H51.6V19.2H50.4zM51.6,18H52.8V19.2H51.6zM52.8,18H54V19.2H52.8zM54,18H55.2V19.2H54zM55.2,18H56.4V19.2H55.2zM4.8,19.2H6V20.4H4.8zM6,19.2H7.2V20.4H6zM8.4,19.2H9.6V20.4H8.4zM9.6,19.2H10.8V20.4H9.6zM12,19.2H13.2V20.4H12zM13.2,19.2H14.4V20.4H13.2zM14.4,19.2H15.6V20.4H14.4zM16.8,19.2H18V20.4H16.8zM18,19.2H19.2V20.4H18zM19.2,19.2H20.4V20.4H19.2zM21.6,19.2H22.8V20.4H21.6zM22.8,19.2H24V20.4H22.8zM24,19.2H25.2V20.4H24zM25.2,19.2H26.4V20.4H25.2zM26.4,19.2H27.6V20.4H26.4zM27.6,19.2H28.8V20.4H27.6zM30,19.2H31.2V20.4H30zM31.2,19.2H32.4V20.4H31.2zM33.6,19.2H34.8V20.4H33.6zM34.8,19.2H36V20.4H34.8zM38.4,19.2H39.6V20.4H38.4zM39.6,19.2H40.8V20.4H39.6zM40.8,19.2H42V20.4H40.8zM42,19.2H43.2V20.4H42zM44.4,19.2H45.6V20.4H44.4zM46.8,19.2H48V20.4H46.8zM49.2,19.2H50.4V20.4H49.2zM54,19.2H55.2V20.4H54zM57.6,19.2H58.8V20.4H57.6zM4.8,20.4H6V21.6H4.8zM7.2,20.4H8.4V21.6H7.2zM8.4,20.4H9.6V21.6H8.4zM9.6,20.4H10.8V21.6H9.6zM10.8,20.4H12V21.6H10.8zM14.4,20.4H15.6V21.6H14.4zM18,20.4H19.2V21.6H18zM19.2,20.4H20.4V21.6H19.2zM25.2,20.4H26.4V21.6H25.2zM31.2,20.4H32.4V21.6H31.2zM32.4,20.4H33.6V21.6H32.4zM33.6,20.4H34.8V21.6H33.6zM34.8,20.4H36V21.6H34.8zM37.2,20.4H38.4V21.6H37.2zM38.4,20.4H39.6V21.6H38.4zM39.6,20.4H40.8V21.6H39.6zM40.8,20.4H42V21.6H40.8zM42,20.4H43.2V21.6H42zM46.8,20.4H48V21.6H46.8zM48,20.4H49.2V21.6H48zM49.2,20.4H50.4V21.6H49.2zM52.8,20.4H54V21.6H52.8zM54,20.4H55.2V21.6H54zM56.4,20.4H57.6V21.6H56.4zM57.6,20.4H58.8V21.6H57.6zM6,21.6H7.2V22.8H6zM12,21.6H13.2V22.8H12zM14.4,21.6H15.6V22.8H14.4zM16.8,21.6H18V22.8H16.8zM19.2,21.6H20.4V22.8H19.2zM20.4,21.6H21.6V22.8H20.4zM21.6,21.6H22.8V22.8H21.6zM24,21.6H25.2V22.8H24zM26.4,21.6H27.6V22.8H26.4zM28.8,21.6H30V22.8H28.8zM30,21.6H31.2V22.8H30zM31.2,21.6H32.4V22.8H31.2zM32.4,21.6H33.6V22.8H32.4zM33.6,21.6H34.8V22.8H33.6zM36,21.6H37.2V22.8H36zM38.4,21.6H39.6V22.8H38.4zM44.4,21.6H45.6V22.8H44.4zM45.6,21.6H46.8V22.8H45.6zM46.8,21.6H48V22.8H46.8zM50.4,21.6H51.6V22.8H50.4zM52.8,21.6H54V22.8H52.8zM55.2,21.6H56.4V22.8H55.2zM56.4,21.6H57.6V22.8H56.4zM4.8,22.8H6V24H4.8zM6,22.8H7.2V24H6zM7.2,22.8H8.4V24H7.2zM9.6,22.8H10.8V24H9.6zM13.2,22.8H14.4V24H13.2zM15.6,22.8H16.8V24H15.6zM19.2,22.8H20.4V24H19.2zM21.6,22.8H22.8V24H21.6zM22.8,22.8H24V24H22.8zM24,22.8H25.2V24H24zM25.2,22.8H26.4V24H25.2zM27.6,22.8H28.8V24H27.6zM31.2,22.8H32.4V24H31.2zM33.6,22.8H34.8V24H33.6zM36,22.8H37.2V24H36zM37.2,22.8H38.4V24H37.2zM38.4,22.8H39.6V24H38.4zM39.6,22.8H40.8V24H39.6zM42,22.8H43.2V24H42zM43.2,22.8H44.4V24H43.2zM45.6,22.8H46.8V24H45.6zM48,22.8H49.2V24H48zM49.2,22.8H50.4V24H49.2zM50.4,22.8H51.6V24H50.4zM51.6,22.8H52.8V24H51.6zM52.8,22.8H54V24H52.8zM55.2,22.8H56.4V24H55.2zM57.6,22.8H58.8V24H57.6zM4.8,24H6V25.2H4.8zM7.2,24H8.4V25.2H7.2zM8.4,24H9.6V25.2H8.4zM9.6,24H10.8V25.2H9.6zM10.8,24H12V25.2H10.8zM12,24H13.2V25.2H12zM14.4,24H15.6V25.2H14.4zM15.6,24H16.8V25.2H15.6zM21.6,24H22.8V25.2H21.6zM22.8,24H24V25.2H22.8zM25.2,24H26.4V25.2H25.2zM26.4,24H27.6V25.2H26.4zM27.6,24H28.8V25.2H27.6zM30,24H31.2V25.2H30zM32.4,24H33.6V25.2H32.4zM33.6,24H34.8V25.2H33.6zM34.8,24H36V25.2H34.8zM40.8,24H42V25.2H40.8zM42,24H43.2V25.2H42zM46.8,24H48V25.2H46.8zM49.2,24H50.4V25.2H49.2zM56.4,24H57.6V25.2H56.4zM7.2,25.2H8.4V26.4H7.2zM8.4,25.2H9.6V26.4H8.4zM15.6,25.2H16.8V26.4H15.6zM19.2,25.2H20.4V26.4H19.2zM22.8,25.2H24V26.4H22.8zM27.6,25.2H28.8V26.4H27.6zM31.2,25.2H32.4V26.4H31.2zM32.4,25.2H33.6V26.4H32.4zM34.8,25.2H36V26.4H34.8zM38.4,25.2H39.6V26.4H38.4zM39.6,25.2H40.8V26.4H39.6zM40.8,25.2H42V26.4H40.8zM42,25.2H43.2V26.4H42zM46.8,25.2H48V26.4H46.8zM48,25.2H49.2V26.4H48zM49.2,25.2H50.4V26.4H49.2zM51.6,25.2H52.8V26.4H51.6zM54,25.2H55.2V26.4H54zM55.2,25.2H56.4V26.4H55.2zM57.6,25.2H58.8V26.4H57.6zM7.2,26.4H8.4V27.6H7.2zM8.4,26.4H9.6V27.6H8.4zM9.6,26.4H10.8V27.6H9.6zM12,26.4H13.2V27.6H12zM14.4,26.4H15.6V27.6H14.4zM15.6,26.4H16.8V27.6H15.6zM19.2,26.4H20.4V27.6H19.2zM21.6,26.4H22.8V27.6H21.6zM22.8,26.4H24V27.6H22.8zM26.4,26.4H27.6V27.6H26.4zM28.8,26.4H30V27.6H28.8zM31.2,26.4H32.4V27.6H31.2zM32.4,26.4H33.6V27.6H32.4zM33.6,26.4H34.8V27.6H33.6zM36,26.4H37.2V27.6H36zM45.6,26.4H46.8V27.6H45.6zM46.8,26.4H48V27.6H46.8zM49.2,26.4H50.4V27.6H49.2zM54,26.4H55.2V27.6H54zM55.2,26.4H56.4V27.6H55.2zM56.4,26.4H57.6V27.6H56.4zM7.2,27.6H8.4V28.8H7.2zM8.4,27.6H9.6V28.8H8.4zM13.2,27.6H14.4V28.8H13.2zM18,27.6H19.2V28.8H18zM19.2,27.6H20.4V28.8H19.2zM21.6,27.6H22.8V28.8H21.6zM25.2,27.6H26.4V28.8H25.2zM27.6,27.6H28.8V28.8H27.6zM32.4,27.6H33.6V28.8H32.4zM33.6,27.6H34.8V28.8H33.6zM34.8,27.6H36V28.8H34.8zM36,27.6H37.2V28.8H36zM39.6,27.6H40.8V28.8H39.6zM40.8,27.6H42V28.8H40.8zM43.2,27.6H44.4V28.8H43.2zM46.8,27.6H48V28.8H46.8zM52.8,27.6H54V28.8H52.8zM54,27.6H55.2V28.8H54zM55.2,27.6H56.4V28.8H55.2zM56.4,27.6H57.6V28.8H56.4zM4.8,28.8H6V30H4.8zM6,28.8H7.2V30H6zM7.2,28.8H8.4V30H7.2zM8.4,28.8H9.6V30H8.4zM9.6,28.8H10.8V30H9.6zM10.8,28.8H12V30H10.8zM12,28.8H13.2V30H12zM13.2,28.8H14.4V30H13.2zM14.4,28.8H15.6V30H14.4zM15.6,28.8H16.8V30H15.6zM19.2,28.8H20.4V30H19.2zM20.4,28.8H21.6V30H20.4zM25.2,28.8H26.4V30H25.2zM26.4,28.8H27.6V30H26.4zM27.6,28.8H28.8V30H27.6zM28.8,28.8H30V30H28.8zM30,28.8H31.2V30H30zM31.2,28.8H32.4V30H31.2zM32.4,28.8H33.6V30H32.4zM33.6,28.8H34.8V30H33.6zM36,28.8H37.2V30H36zM42,28.8H43.2V30H42zM46.8,28.8H48V30H46.8zM48,28.8H49.2V30H48zM49.2,28.8H50.4V30H49.2zM50.4,28.8H51.6V30H50.4zM51.6,28.8H52.8V30H51.6zM52.8,28.8H54V30H52.8zM54,28.8H55.2V30H54zM8.4,30H9.6V31.2H8.4zM9.6,30H10.8V31.2H9.6zM14.4,30H15.6V31.2H14.4zM16.8,30H18V31.2H16.8zM19.2,30H20.4V31.2H19.2zM22.8,30H24V31.2H22.8zM24,30H25.2V31.2H24zM27.6,30H28.8V31.2H27.6zM28.8,30H30V31.2H28.8zM33.6,30H34.8V31.2H33.6zM34.8,30H36V31.2H34.8zM36,30H37.2V31.2H36zM39.6,30H40.8V31.2H39.6zM40.8,30H42V31.2H40.8zM42,30H43.2V31.2H42zM46.8,30H48V31.2H46.8zM48,30H49.2V31.2H48zM52.8,30H54V31.2H52.8zM54,30H55.2V31.2H54zM55.2,30H56.4V31.2H55.2zM56.4,30H57.6V31.2H56.4zM57.6,30H58.8V31.2H57.6zM4.8,31.2H6V32.4H4.8zM8.4,31.2H9.6V32.4H8.4zM9.6,31.2H10.8V32.4H9.6zM12,31.2H13.2V32.4H12zM14.4,31.2H15.6V32.4H14.4zM15.6,31.2H16.8V32.4H15.6zM18,31.2H19.2V32.4H18zM19.2,31.2H20.4V32.4H19.2zM22.8,31.2H24V32.4H22.8zM24,31.2H25.2V32.4H24zM26.4,31.2H27.6V32.4H26.4zM28.8,31.2H30V32.4H28.8zM31.2,31.2H32.4V32.4H31.2zM33.6,31.2H34.8V32.4H33.6zM38.4,31.2H39.6V32.4H38.4zM39.6,31.2H40.8V32.4H39.6zM42,31.2H43.2V32.4H42zM43.2,31.2H44.4V32.4H43.2zM44.4,31.2H45.6V32.4H44.4zM45.6,31.2H46.8V32.4H45.6zM46.8,31.2H48V32.4H46.8zM48,31.2H49.2V32.4H48zM50.4,31.2H51.6V32.4H50.4zM52.8,31.2H54V32.4H52.8zM55.2,31.2H56.4V32.4H55.2zM56.4,31.2H57.6V32.4H56.4zM6,32.4H7.2V33.6H6zM9.6,32.4H10.8V33.6H9.6zM14.4,32.4H15.6V33.6H14.4zM15.6,32.4H16.8V33.6H15.6zM19.2,32.4H20.4V33.6H19.2zM21.6,32.4H22.8V33.6H21.6zM22.8,32.4H24V33.6H22.8zM25.2,32.4H26.4V33.6H25.2zM26.4,32.4H27.6V33.6H26.4zM28.8,32.4H30V33.6H28.8zM33.6,32.4H34.8V33.6H33.6zM38.4,32.4H39.6V33.6H38.4zM39.6,32.4H40.8V33.6H39.6zM43.2,32.4H44.4V33.6H43.2zM44.4,32.4H45.6V33.6H44.4zM45.6,32.4H46.8V33.6H45.6zM48,32.4H49.2V33.6H48zM52.8,32.4H54V33.6H52.8zM54,32.4H55.2V33.6H54zM55.2,32.4H56.4V33.6H55.2zM56.4,32.4H57.6V33.6H56.4zM57.6,32.4H58.8V33.6H57.6zM4.8,33.6H6V34.8H4.8zM7.2,33.6H8.4V34.8H7.2zM8.4,33.6H9.6V34.8H8.4zM9.6,33.6H10.8V34.8H9.6zM10.8,33.6H12V34.8H10.8zM12,33.6H13.2V34.8H12zM13.2,33.6H14.4V34.8H13.2zM14.4,33.6H15.6V34.8H14.4zM16.8,33.6H18V34.8H16.8zM20.4,33.6H21.6V34.8H20.4zM21.6,33.6H22.8V34.8H21.6zM24,33.6H25.2V34.8H24zM26.4,33.6H27.6V34.8H26.4zM28.8,33.6H30V34.8H28.8zM30,33.6H31.2V34.8H30zM31.2,33.6H32.4V34.8H31.2zM32.4,33.6H33.6V34.8H32.4zM33.6,33.6H34.8V34.8H33.6zM34.8,33.6H36V34.8H34.8zM36,33.6H37.2V34.8H36zM39.6,33.6H40.8V34.8H39.6zM40.8,33.6H42V34.8H40.8zM42,33.6H43.2V34.8H42zM44.4,33.6H45.6V34.8H44.4zM48,33.6H49.2V34.8H48zM49.2,33.6H50.4V34.8H49.2zM50.4,33.6H51.6V34.8H50.4zM51.6,33.6H52.8V34.8H51.6zM52.8,33.6H54V34.8H52.8zM54,33.6H55.2V34.8H54zM56.4,33.6H57.6V34.8H56.4zM57.6,33.6H58.8V34.8H57.6zM4.8,34.8H6V36H4.8zM6,34.8H7.2V36H6zM13.2,34.8H14.4V36H13.2zM14.4,34.8H15.6V36H14.4zM15.6,34.8H16.8V36H15.6zM16.8,34.8H18V36H16.8zM18,34.8H19.2V36H18zM19.2,34.8H20.4V36H19.2zM25.2,34.8H26.4V36H25.2zM26.4,34.8H27.6V36H26.4zM27.6,34.8H28.8V36H27.6zM28.8,34.8H30V36H28.8zM31.2,34.8H32.4V36H31.2zM34.8,34.8H36V36H34.8zM37.2,34.8H38.4V36H37.2zM39.6,34.8H40.8V36H39.6zM40.8,34.8H42V36H40.8zM42,34.8H43.2V36H42zM46.8,34.8H48V36H46.8zM49.2,34.8H50.4V36H49.2zM50.4,34.8H51.6V36H50.4zM51.6,34.8H52.8V36H51.6zM55.2,34.8H56.4V36H55.2zM57.6,34.8H58.8V36H57.6zM7.2,36H8.4V37.2H7.2zM8.4,36H9.6V37.2H8.4zM10.8,36H12V37.2H10.8zM12,36H13.2V37.2H12zM13.2,36H14.4V37.2H13.2zM14.4,36H15.6V37.2H14.4zM16.8,36H18V37.2H16.8zM18,36H19.2V37.2H18zM21.6,36H22.8V37.2H21.6zM24,36H25.2V37.2H24zM31.2,36H32.4V37.2H31.2zM36,36H37.2V37.2H36zM37.2,36H38.4V37.2H37.2zM38.4,36H39.6V37.2H38.4zM39.6,36H40.8V37.2H39.6zM43.2,36H44.4V37.2H43.2zM44.4,36H45.6V37.2H44.4zM45.6,36H46.8V37.2H45.6zM46.8,36H48V37.2H46.8zM48,36H49.2V37.2H48zM49.2,36H50.4V37.2H49.2zM56.4,36H57.6V37.2H56.4zM6,37.2H7.2V38.4H6zM10.8,37.2H12V38.4H10.8zM14.4,37.2H15.6V38.4H14.4zM16.8,37.2H18V38.4H16.8zM18,37.2H19.2V38.4H18zM20.4,37.2H21.6V38.4H20.4zM22.8,37.2H24V38.4H22.8zM24,37.2H25.2V38.4H24zM25.2,37.2H26.4V38.4H25.2zM26.4,37.2H27.6V38.4H26.4zM28.8,37.2H30V38.4H28.8zM33.6,37.2H34.8V38.4H33.6zM34.8,37.2H36V38.4H34.8zM39.6,37.2H40.8V38.4H39.6zM43.2,37.2H44.4V38.4H43.2zM44.4,37.2H45.6V38.4H44.4zM46.8,37.2H48V38.4H46.8zM50.4,37.2H51.6V38.4H50.4zM54,37.2H55.2V38.4H54zM55.2,37.2H56.4V38.4H55.2zM4.8,38.4H6V39.6H4.8zM6,38.4H7.2V39.6H6zM9.6,38.4H10.8V39.6H9.6zM12,38.4H13.2V39.6H12zM15.6,38.4H16.8V39.6H15.6zM16.8,38.4H18V39.6H16.8zM19.2,38.4H20.4V39.6H19.2zM21.6,38.4H22.8V39.6H21.6zM22.8,38.4H24V39.6H22.8zM24,38.4H25.2V39.6H24zM25.2,38.4H26.4V39.6H25.2zM30,38.4H31.2V39.6H30zM32.4,38.4H33.6V39.6H32.4zM33.6,38.4H34.8V39.6H33.6zM34.8,38.4H36V39.6H34.8zM37.2,38.4H38.4V39.6H37.2zM39.6,38.4H40.8V39.6H39.6zM42,38.4H43.2V39.6H42zM50.4,38.4H51.6V39.6H50.4zM52.8,38.4H54V39.6H52.8zM56.4,38.4H57.6V39.6H56.4zM57.6,38.4H58.8V39.6H57.6zM4.8,39.6H6V40.8H4.8zM9.6,39.6H10.8V40.8H9.6zM13.2,39.6H14.4V40.8H13.2zM18,39.6H19.2V40.8H18zM19.2,39.6H20.4V40.8H19.2zM20.4,39.6H21.6V40.8H20.4zM21.6,39.6H22.8V40.8H21.6zM22.8,39.6H24V40.8H22.8zM24,39.6H25.2V40.8H24zM25.2,39.6H26.4V40.8H25.2zM28.8,39.6H30V40.8H28.8zM31.2,39.6H32.4V40.8H31.2zM32.4,39.6H33.6V40.8H32.4zM34.8,39.6H36V40.8H34.8zM40.8,39.6H42V40.8H40.8zM43.2,39.6H44.4V40.8H43.2zM46.8,39.6H48V40.8H46.8zM48,39.6H49.2V40.8H48zM50.4,39.6H51.6V40.8H50.4zM54,39.6H55.2V40.8H54zM55.2,39.6H56.4V40.8H55.2zM57.6,39.6H58.8V40.8H57.6zM4.8,40.8H6V42H4.8zM8.4,40.8H9.6V42H8.4zM12,40.8H13.2V42H12zM13.2,40.8H14.4V42H13.2zM15.6,40.8H16.8V42H15.6zM16.8,40.8H18V42H16.8zM18,40.8H19.2V42H18zM19.2,40.8H20.4V42H19.2zM24,40.8H25.2V42H24zM25.2,40.8H26.4V42H25.2zM27.6,40.8H28.8V42H27.6zM31.2,40.8H32.4V42H31.2zM33.6,40.8H34.8V42H33.6zM36,40.8H37.2V42H36zM37.2,40.8H38.4V42H37.2zM40.8,40.8H42V42H40.8zM44.4,40.8H45.6V42H44.4zM45.6,40.8H46.8V42H45.6zM51.6,40.8H52.8V42H51.6zM4.8,42H6V43.2H4.8zM8.4,42H9.6V43.2H8.4zM9.6,42H10.8V43.2H9.6zM10.8,42H12V43.2H10.8zM15.6,42H16.8V43.2H15.6zM18,42H19.2V43.2H18zM19.2,42H20.4V43.2H19.2zM25.2,42H26.4V43.2H25.2zM27.6,42H28.8V43.2H27.6zM28.8,42H30V43.2H28.8zM30,42H31.2V43.2H30zM32.4,42H33.6V43.2H32.4zM34.8,42H36V43.2H34.8zM38.4,42H39.6V43.2H38.4zM43.2,42H44.4V43.2H43.2zM44.4,42H45.6V43.2H44.4zM46.8,42H48V43.2H46.8zM50.4,42H51.6V43.2H50.4zM51.6,42H52.8V43.2H51.6zM54,42H55.2V43.2H54zM55.2,42H56.4V43.2H55.2zM6,43.2H7.2V44.4H6zM7.2,43.2H8.4V44.4H7.2zM8.4,43.2H9.6V44.4H8.4zM9.6,43.2H10.8V44.4H9.6zM12,43.2H13.2V44.4H12zM18,43.2H19.2V44.4H18zM20.4,43.2H21.6V44.4H20.4zM27.6,43.2H28.8V44.4H27.6zM28.8,43.2H30V44.4H28.8zM34.8,43.2H36V44.4H34.8zM36,43.2H37.2V44.4H36zM39.6,43.2H40.8V44.4H39.6zM40.8,43.2H42V44.4H40.8zM42,43.2H43.2V44.4H42zM44.4,43.2H45.6V44.4H44.4zM48,43.2H49.2V44.4H48zM50.4,43.2H51.6V44.4H50.4zM54,43.2H55.2V44.4H54zM57.6,43.2H58.8V44.4H57.6zM6,44.4H7.2V45.6H6zM8.4,44.4H9.6V45.6H8.4zM10.8,44.4H12V45.6H10.8zM15.6,44.4H16.8V45.6H15.6zM16.8,44.4H18V45.6H16.8zM18,44.4H19.2V45.6H18zM26.4,44.4H27.6V45.6H26.4zM27.6,44.4H28.8V45.6H27.6zM28.8,44.4H30V45.6H28.8zM30,44.4H31.2V45.6H30zM31.2,44.4H32.4V45.6H31.2zM32.4,44.4H33.6V45.6H32.4zM34.8,44.4H36V45.6H34.8zM39.6,44.4H40.8V45.6H39.6zM40.8,44.4H42V45.6H40.8zM46.8,44.4H48V45.6H46.8zM49.2,44.4H50.4V45.6H49.2zM54,44.4H55.2V45.6H54zM55.2,44.4H56.4V45.6H55.2zM57.6,44.4H58.8V45.6H57.6zM9.6,45.6H10.8V46.8H9.6zM12,45.6H13.2V46.8H12zM13.2,45.6H14.4V46.8H13.2zM16.8,45.6H18V46.8H16.8zM18,45.6H19.2V46.8H18zM19.2,45.6H20.4V46.8H19.2zM21.6,45.6H22.8V46.8H21.6zM26.4,45.6H27.6V46.8H26.4zM28.8,45.6H30V46.8H28.8zM30,45.6H31.2V46.8H30zM32.4,45.6H33.6V46.8H32.4zM36,45.6H37.2V46.8H36zM37.2,45.6H38.4V46.8H37.2zM44.4,45.6H45.6V46.8H44.4zM45.6,45.6H46.8V46.8H45.6zM46.8,45.6H48V46.8H46.8zM48,45.6H49.2V46.8H48zM49.2,45.6H50.4V46.8H49.2zM55.2,45.6H56.4V46.8H55.2zM56.4,45.6H57.6V46.8H56.4zM6,46.8H7.2V48H6zM7.2,46.8H8.4V48H7.2zM8.4,46.8H9.6V48H8.4zM9.6,46.8H10.8V48H9.6zM13.2,46.8H14.4V48H13.2zM16.8,46.8H18V48H16.8zM18,46.8H19.2V48H18zM19.2,46.8H20.4V48H19.2zM32.4,46.8H33.6V48H32.4zM33.6,46.8H34.8V48H33.6zM37.2,46.8H38.4V48H37.2zM38.4,46.8H39.6V48H38.4zM39.6,46.8H40.8V48H39.6zM40.8,46.8H42V48H40.8zM42,46.8H43.2V48H42zM43.2,46.8H44.4V48H43.2zM45.6,46.8H46.8V48H45.6zM46.8,46.8H48V48H46.8zM48,46.8H49.2V48H48zM50.4,46.8H51.6V48H50.4zM52.8,46.8H54V48H52.8zM54,46.8H55.2V48H54zM55.2,46.8H56.4V48H55.2zM56.4,46.8H57.6V48H56.4zM4.8,48H6V49.2H4.8zM8.4,48H9.6V49.2H8.4zM9.6,48H10.8V49.2H9.6zM12,48H13.2V49.2H12zM13.2,48H14.4V49.2H13.2zM14.4,48H15.6V49.2H14.4zM18,48H19.2V49.2H18zM19.2,48H20.4V49.2H19.2zM20.4,48H21.6V49.2H20.4zM25.2,48H26.4V49.2H25.2zM28.8,48H30V49.2H28.8zM30,48H31.2V49.2H30zM31.2,48H32.4V49.2H31.2zM32.4,48H33.6V49.2H32.4zM33.6,48H34.8V49.2H33.6zM34.8,48H36V49.2H34.8zM39.6,48H40.8V49.2H39.6zM40.8,48H42V49.2H40.8zM44.4,48H45.6V49.2H44.4zM45.6,48H46.8V49.2H45.6zM48,48H49.2V49.2H48zM49.2,48H50.4V49.2H49.2zM50.4,48H51.6V49.2H50.4zM51.6,48H52.8V49.2H51.6zM52.8,48H54V49.2H52.8zM57.6,48H58.8V49.2H57.6zM14.4,49.2H15.6V50.4H14.4zM16.8,49.2H18V50.4H16.8zM18,49.2H19.2V50.4H18zM19.2,49.2H20.4V50.4H19.2zM20.4,49.2H21.6V50.4H20.4zM21.6,49.2H22.8V50.4H21.6zM27.6,49.2H28.8V50.4H27.6zM28.8,49.2H30V50.4H28.8zM33.6,49.2H34.8V50.4H33.6zM37.2,49.2H38.4V50.4H37.2zM39.6,49.2H40.8V50.4H39.6zM40.8,49.2H42V50.4H40.8zM46.8,49.2H48V50.4H46.8zM48,49.2H49.2V50.4H48zM52.8,49.2H54V50.4H52.8zM54,49.2H55.2V50.4H54zM55.2,49.2H56.4V50.4H55.2zM57.6,49.2H58.8V50.4H57.6zM4.8,50.4H6V51.6H4.8zM6,50.4H7.2V51.6H6zM7.2,50.4H8.4V51.6H7.2zM8.4,50.4H9.6V51.6H8.4zM9.6,50.4H10.8V51.6H9.6zM10.8,50.4H12V51.6H10.8zM12,50.4H13.2V51.6H12zM15.6,50.4H16.8V51.6H15.6zM16.8,50.4H18V51.6H16.8zM18,50.4H19.2V51.6H18zM19.2,50.4H20.4V51.6H19.2zM24,50.4H25.2V51.6H24zM26.4,50.4H27.6V51.6H26.4zM27.6,50.4H28.8V51.6H27.6zM28.8,50.4H30V51.6H28.8zM31.2,50.4H32.4V51.6H31.2zM33.6,50.4H34.8V51.6H33.6zM34.8,50.4H36V51.6H34.8zM39.6,50.4H40.8V51.6H39.6zM42,50.4H43.2V51.6H42zM45.6,50.4H46.8V51.6H45.6zM46.8,50.4H48V51.6H46.8zM48,50.4H49.2V51.6H48zM50.4,50.4H51.6V51.6H50.4zM52.8,50.4H54V51.6H52.8zM55.2,50.4H56.4V51.6H55.2zM56.4,50.4H57.6V51.6H56.4zM4.8,51.6H6V52.8H4.8zM12,51.6H13.2V52.8H12zM14.4,51.6H15.6V52.8H14.4zM15.6,51.6H16.8V52.8H15.6zM16.8,51.6H18V52.8H16.8zM19.2,51.6H20.4V52.8H19.2zM20.4,51.6H21.6V52.8H20.4zM21.6,51.6H22.8V52.8H21.6zM22.8,51.6H24V52.8H22.8zM24,51.6H25.2V52.8H24zM25.2,51.6H26.4V52.8H25.2zM26.4,51.6H27.6V52.8H26.4zM27.6,51.6H28.8V52.8H27.6zM28.8,51.6H30V52.8H28.8zM33.6,51.6H34.8V52.8H33.6zM34.8,51.6H36V52.8H34.8zM36,51.6H37.2V52.8H36zM37.2,51.6H38.4V52.8H37.2zM38.4,51.6H39.6V52.8H38.4zM40.8,51.6H42V52.8H40.8zM43.2,51.6H44.4V52.8H43.2zM46.8,51.6H48V52.8H46.8zM48,51.6H49.2V52.8H48zM52.8,51.6H54V52.8H52.8zM54,51.6H55.2V52.8H54zM55.2,51.6H56.4V52.8H55.2zM56.4,51.6H57.6V52.8H56.4zM57.6,51.6H58.8V52.8H57.6zM4.8,52.8H6V54H4.8zM7.2,52.8H8.4V54H7.2zM8.4,52.8H9.6V54H8.4zM9.6,52.8H10.8V54H9.6zM12,52.8H13.2V54H12zM14.4,52.8H15.6V54H14.4zM15.6,52.8H16.8V54H15.6zM16.8,52.8H18V54H16.8zM18,52.8H19.2V54H18zM19.2,52.8H20.4V54H19.2zM20.4,52.8H21.6V54H20.4zM28.8,52.8H30V54H28.8zM30,52.8H31.2V54H30zM31.2,52.8H32.4V54H31.2zM32.4,52.8H33.6V54H32.4zM33.6,52.8H34.8V54H33.6zM34.8,52.8H36V54H34.8zM36,52.8H37.2V54H36zM40.8,52.8H42V54H40.8zM42,52.8H43.2V54H42zM46.8,52.8H48V54H46.8zM48,52.8H49.2V54H48zM49.2,52.8H50.4V54H49.2zM50.4,52.8H51.6V54H50.4zM51.6,52.8H52.8V54H51.6zM52.8,52.8H54V54H52.8zM54,52.8H55.2V54H54zM4.8,54H6V55.2H4.8zM7.2,54H8.4V55.2H7.2zM8.4,54H9.6V55.2H8.4zM9.6,54H10.8V55.2H9.6zM12,54H13.2V55.2H12zM14.4,54H15.6V55.2H14.4zM15.6,54H16.8V55.2H15.6zM18,54H19.2V55.2H18zM22.8,54H24V55.2H22.8zM25.2,54H26.4V55.2H25.2zM27.6,54H28.8V55.2H27.6zM30,54H31.2V55.2H30zM33.6,54H34.8V55.2H33.6zM34.8,54H36V55.2H34.8zM38.4,54H39.6V55.2H38.4zM39.6,54H40.8V55.2H39.6zM40.8,54H42V55.2H40.8zM42,54H43.2V55.2H42zM49.2,54H50.4V55.2H49.2zM50.4,54H51.6V55.2H50.4zM52.8,54H54V55.2H52.8zM55.2,54H56.4V55.2H55.2zM57.6,54H58.8V55.2H57.6zM4.8,55.2H6V56.4H4.8zM7.2,55.2H8.4V56.4H7.2zM8.4,55.2H9.6V56.4H8.4zM9.6,55.2H10.8V56.4H9.6zM12,55.2H13.2V56.4H12zM14.4,55.2H15.6V56.4H14.4zM15.6,55.2H16.8V56.4H15.6zM16.8,55.2H18V56.4H16.8zM18,55.2H19.2V56.4H18zM21.6,55.2H22.8V56.4H21.6zM22.8,55.2H24V56.4H22.8zM24,55.2H25.2V56.4H24zM25.2,55.2H26.4V56.4H25.2zM27.6,55.2H28.8V56.4H27.6zM28.8,55.2H30V56.4H28.8zM36,55.2H37.2V56.4H36zM45.6,55.2H46.8V56.4H45.6zM46.8,55.2H48V56.4H46.8zM48,55.2H49.2V56.4H48zM49.2,55.2H50.4V56.4H49.2zM50.4,55.2H51.6V56.4H50.4zM54,55.2H55.2V56.4H54zM56.4,55.2H57.6V56.4H56.4zM4.8,56.4H6V57.6H4.8zM12,56.4H13.2V57.6H12zM16.8,56.4H18V57.6H16.8zM18,56.4H19.2V57.6H18zM19.2,56.4H20.4V57.6H19.2zM20.4,56.4H21.6V57.6H20.4zM21.6,56.4H22.8V57.6H21.6zM22.8,56.4H24V57.6H22.8zM24,56.4H25.2V57.6H24zM25.2,56.4H26.4V57.6H25.2zM27.6,56.4H28.8V57.6H27.6zM28.8,56.4H30V57.6H28.8zM34.8,56.4H36V57.6H34.8zM37.2,56.4H38.4V57.6H37.2zM39.6,56.4H40.8V57.6H39.6zM42,56.4H43.2V57.6H42zM43.2,56.4H44.4V57.6H43.2zM46.8,56.4H48V57.6H46.8zM49.2,56.4H50.4V57.6H49.2zM54,56.4H55.2V57.6H54zM55.2,56.4H56.4V57.6H55.2zM4.8,57.6H6V58.8H4.8zM6,57.6H7.2V58.8H6zM7.2,57.6H8.4V58.8H7.2zM8.4,57.6H9.6V58.8H8.4zM9.6,57.6H10.8V58.8H9.6zM10.8,57.6H12V58.8H10.8zM12,57.6H13.2V58.8H12zM14.4,57.6H15.6V58.8H14.4zM15.6,57.6H16.8V58.8H15.6zM18,57.6H19.2V58.8H18zM19.2,57.6H20.4V58.8H19.2zM20.4,57.6H21.6V58.8H20.4zM22.8,57.6H24V58.8H22.8zM25.2,57.6H26.4V58.8H25.2zM26.4,57.6H27.6V58.8H26.4zM27.6,57.6H28.8V58.8H27.6zM32.4,57.6H33.6V58.8H32.4zM33.6,57.6H34.8V58.8H33.6zM38.4,57.6H39.6V58.8H38.4zM42,57.6H43.2V58.8H42zM45.6,57.6H46.8V58.8H45.6zM46.8,57.6H48V58.8H46.8zM50.4,57.6H51.6V58.8H50.4zM56.4,57.6H57.6V58.8H56.4z" id="qr-path" fill="#000000" fill-opacity="1" fill-rule="nonzero" stroke="none" /></svg>