<?xml version='1.0' encoding='UTF-8'?>
<title>ThePawLight etsy_direct_backup</title>
<desc>Backup only: direct Etsy QR if a marketplace-only code is required: https://thepawlightofficial.etsy.com/listing/1375236596?utm_source=qr&amp;utm_medium=print&amp;utm_campaign=pawlight_launch&amp;utm_content=etsy_direct_backup</desc>
<svg width="68.4mm" height="68.4mm" version="1.1" viewBox="0 0 68.4 68.4" xmlns="http://www.w3.org/2000/svg"><path d="M4.8,4.8H6V6H4.8zM6,4.8H7.2V6H6zM7.2,4.8H8.4V6H7.2zM8.4,4.8H9.6V6H8.4zM9.6,4.8H10.8V6H9.6zM10.8,4.8H12V6H10.8zM12,4.8H13.2V6H12zM19.2,4.8H20.4V6H19.2zM26.4,4.8H27.6V6H26.4zM30,4.8H31.2V6H30zM32.4,4.8H33.6V6H32.4zM33.6,4.8H34.8V6H33.6zM34.8,4.8H36V6H34.8zM39.6,4.8H40.8V6H39.6zM40.8,4.8H42V6H40.8zM43.2,4.8H44.4V6H43.2zM48,4.8H49.2V6H48zM52.8,4.8H54V6H52.8zM55.2,4.8H56.4V6H55.2zM56.4,4.8H57.6V6H56.4zM57.6,4.8H58.8V6H57.6zM58.8,4.8H60V6H58.8zM60,4.8H61.2V6H60zM61.2,4.8H62.4V6H61.2zM62.4,4.8H63.6V6H62.4zM4.8,6H6V7.2H4.8zM12,6H13.2V7.2H12zM16.8,6H18V7.2H16.8zM20.4,6H21.6V7.2H20.4zM21.6,6H22.8V7.2H21.6zM22.8,6H24V7.2H22.8zM24,6H25.2V7.2H24zM26.4,6H27.6V7.2H26.4zM27.6,6H28.8V7.2H27.6zM30,6H31.2V7.2H30zM31.2,6H32.4V7.2H31.2zM36,6H37.2V7.2H36zM37.2,6H38.4V7.2H37.2zM45.6,6H46.8V7.2H45.6zM46.8,6H48V7.2H46.8zM48,6H49.2V7.2H48zM50.4,6H51.6V7.2H50.4zM51.6,6H52.8V7.2H51.6zM52.8,6H54V7.2H52.8zM55.2,6H56.4V7.2H55.2zM62.4,6H63.6V7.2H62.4zM4.8,7.2H6V8.4H4.8zM7.2,7.2H8.4V8.4H7.2zM8.4,7.2H9.6V8.4H8.4zM9.6,7.2H10.8V8.4H9.6zM12,7.2H13.2V8.4H12zM14.4,7.2H15.6V8.4H14.4zM15.6,7.2H16.8V8.4H15.6zM16.8,7.2H18V8.4H16.8zM21.6,7.2H22.8V8.4H21.6zM24,7.2H25.2V8.4H24zM25.2,7.2H26.4V8.4H25.2zM26.4,7.2H27.6V8.4H26.4zM28.8,7.2H30V8.4H28.8zM33.6,7.2H34.8V8.4H33.6zM34.8,7.2H36V8.4H34.8zM36,7.2H37.2V8.4H36zM37.2,7.2H38.4V8.4H37.2zM38.4,7.2H39.6V8.4H38.4zM39.6,7.2H40.8V8.4H39.6zM40.8,7.2H42V8.4H40.8zM43.2,7.2H44.4V8.4H43.2zM44.4,7.2H45.6V8.4H44.4zM45.6,7.2H46.8V8.4H45.6zM51.6,7.2H52.8V8.4H51.6zM52.8,7.2H54V8.4H52.8zM55.2,7.2H56.4V8.4H55.2zM57.6,7.2H58.8V8.4H57.6zM58.8,7.2H60V8.4H58.8zM60,7.2H61.2V8.4H60zM62.4,7.2H63.6V8.4H62.4zM4.8,8.4H6V9.6H4.8zM7.2,8.4H8.4V9.6H7.2zM8.4,8.4H9.6V9.6H8.4zM9.6,8.4H10.8V9.6H9.6zM12,8.4H13.2V9.6H12zM14.4,8.4H15.6V9.6H14.4zM18,8.4H19.2V9.6H18zM20.4,8.4H21.6V9.6H20.4zM24,8.4H25.2V9.6H24zM25.2,8.4H26.4V9.6H25.2zM27.6,8.4H28.8V9.6H27.6zM30,8.4H31.2V9.6H30zM31.2,8.4H32.4V9.6H31.2zM33.6,8.4H34.8V9.6H33.6zM36,8.4H37.2V9.6H36zM42,8.4H43.2V9.6H42zM46.8,8.4H48V9.6H46.8zM48,8.4H49.2V9.6H48zM49.2,8.4H50.4V9.6H49.2zM51.6,8.4H52.8V9.6H51.6zM55.2,8.4H56.4V9.6H55.2zM57.6,8.4H58.8V9.6H57.6zM58.8,8.4H60V9.6H58.8zM60,8.4H61.2V9.6H60zM62.4,8.4H63.6V9.6H62.4zM4.8,9.6H6V10.8H4.8zM7.2,9.6H8.4V10.8H7.2zM8.4,9.6H9.6V10.8H8.4zM9.6,9.6H10.8V10.8H9.6zM12,9.6H13.2V10.8H12zM14.4,9.6H15.6V10.8H14.4zM18,9.6H19.2V10.8H18zM20.4,9.6H21.6V10.8H20.4zM22.8,9.6H24V10.8H22.8zM30,9.6H31.2V10.8H30zM31.2,9.6H32.4V10.8H31.2zM32.4,9.6H33.6V10.8H32.4zM33.6,9.6H34.8V10.8H33.6zM34.8,9.6H36V10.8H34.8zM36,9.6H37.2V10.8H36zM38.4,9.6H39.6V10.8H38.4zM39.6,9.6H40.8V10.8H39.6zM40.8,9.6H42V10.8H40.8zM42,9.6H43.2V10.8H42zM46.8,9.6H48V10.8H46.8zM49.2,9.6H50.4V10.8H49.2zM55.2,9.6H56.4V10.8H55.2zM57.6,9.6H58.8V10.8H57.6zM58.8,9.6H60V10.8H58.8zM60,9.6H61.2V10.8H60zM62.4,9.6H63.6V10.8H62.4zM4.8,10.8H6V12H4.8zM12,10.8H13.2V12H12zM14.4,10.8H15.6V12H14.4zM18,10.8H19.2V12H18zM19.2,10.8H20.4V12H19.2zM20.4,10.8H21.6V12H20.4zM21.6,10.8H22.8V12H21.6zM22.8,10.8H24V12H22.8zM25.2,10.8H26.4V12H25.2zM27.6,10.8H28.8V12H27.6zM31.2,10.8H32.4V12H31.2zM36,10.8H37.2V12H36zM43.2,10.8H44.4V12H43.2zM44.4,10.8H45.6V12H44.4zM45.6,10.8H46.8V12H45.6zM46.8,10.8H48V12H46.8zM50.4,10.8H51.6V12H50.4zM55.2,10.8H56.4V12H55.2zM62.4,10.8H63.6V12H62.4zM4.8,12H6V13.2H4.8zM6,12H7.2V13.2H6zM7.2,12H8.4V13.2H7.2zM8.4,12H9.6V13.2H8.4zM9.6,12H10.8V13.2H9.6zM10.8,12H12V13.2H10.8zM12,12H13.2V13.2H12zM14.4,12H15.6V13.2H14.4zM16.8,12H18V13.2H16.8zM19.2,12H20.4V13.2H19.2zM21.6,12H22.8V13.2H21.6zM24,12H25.2V13.2H24zM26.4,12H27.6V13.2H26.4zM28.8,12H30V13.2H28.8zM31.2,12H32.4V13.2H31.2zM33.6,12H34.8V13.2H33.6zM36,12H37.2V13.2H36zM38.4,12H39.6V13.2H38.4zM40.8,12H42V13.2H40.8zM43.2,12H44.4V13.2H43.2zM45.6,12H46.8V13.2H45.6zM48,12H49.2V13.2H48zM50.4,12H51.6V13.2H50.4zM52.8,12H54V13.2H52.8zM55.2,12H56.4V13.2H55.2zM56.4,12H57.6V13.2H56.4zM57.6,12H58.8V13.2H57.6zM58.8,12H60V13.2H58.8zM60,12H61.2V13.2H60zM61.2,12H62.4V13.2H61.2zM62.4,12H63.6V13.2H62.4zM14.4,13.2H15.6V14.4H14.4zM18,13.2H19.2V14.4H18zM19.2,13.2H20.4V14.4H19.2zM20.4,13.2H21.6V14.4H20.4zM21.6,13.2H22.8V14.4H21.6zM22.8,13.2H24V14.4H22.8zM24,13.2H25.2V14.4H24zM25.2,13.2H26.4V14.4H25.2zM26.4,13.2H27.6V14.4H26.4zM31.2,13.2H32.4V14.4H31.2zM36,13.2H37.2V14.4H36zM37.2,13.2H38.4V14.4H37.2zM38.4,13.2H39.6V14.4H38.4zM39.6,13.2H40.8V14.4H39.6zM42,13.2H43.2V14.4H42zM44.4,13.2H45.6V14.4H44.4zM45.6,13.2H46.8V14.4H45.6zM46.8,13.2H48V14.4H46.8zM49.2,13.2H50.4V14.4H49.2zM51.6,13.2H52.8V14.4H51.6zM52.8,13.2H54V14.4H52.8zM4.8,14.4H6V15.6H4.8zM7.2,14.4H8.4V15.6H7.2zM8.4,14.4H9.6V15.6H8.4zM9.6,14.4H10.8V15.6H9.6zM10.8,14.4H12V15.6H10.8zM12,14.4H13.2V15.6H12zM16.8,14.4H18V15.6H16.8zM19.2,14.4H20.4V15.6H19.2zM21.6,14.4H22.8V15.6H21.6zM22.8,14.4H24V15.6H22.8zM25.2,14.4H26.4V15.6H25.2zM26.4,14.4H27.6V15.6H26.4zM28.8,14.4H30V15.6H28.8zM31.2,14.4H32.4V15.6H31.2zM32.4,14.4H33.6V15.6H32.4zM33.6,14.4H34.8V15.6H33.6zM34.8,14.4H36V15.6H34.8zM36,14.4H37.2V15.6H36zM39.6,14.4H40.8V15.6H39.6zM42,14.4H43.2V15.6H42zM48,14.4H49.2V15.6H48zM49.2,14.4H50.4V15.6H49.2zM50.4,14.4H51.6V15.6H50.4zM51.6,14.4H52.8V15.6H51.6zM52.8,14.4H54V15.6H52.8zM55.2,14.4H56.4V15.6H55.2zM56.4,14.4H57.6V15.6H56.4zM57.6,14.4H58.8V15.6H57.6zM58.8,14.4H60V15.6H58.8zM60,14.4H61.2V15.6H60zM6,15.6H7.2V16.8H6zM8.4,15.6H9.6V16.8H8.4zM9.6,15.6H10.8V16.8H9.6zM10.8,15.6H12V16.8H10.8zM13.2,15.6H14.4V16.8H13.2zM14.4,15.6H15.6V16.8H14.4zM15.6,15.6H16.8V16.8H15.6zM16.8,15.6H18V16.8H16.8zM19.2,15.6H20.4V16.8H19.2zM20.4,15.6H21.6V16.8H20.4zM24,15.6H25.2V16.8H24zM26.4,15.6H27.6V16.8H26.4zM27.6,15.6H28.8V16.8H27.6zM33.6,15.6H34.8V16.8H33.6zM34.8,15.6H36V16.8H34.8zM38.4,15.6H39.6V16.8H38.4zM39.6,15.6H40.8V16.8H39.6zM40.8,15.6H42V16.8H40.8zM42,15.6H43.2V16.8H42zM44.4,15.6H45.6V16.8H44.4zM46.8,15.6H48V16.8H46.8zM48,15.6H49.2V16.8H48zM54,15.6H55.2V16.8H54zM55.2,15.6H56.4V16.8H55.2zM56.4,15.6H57.6V16.8H56.4zM57.6,15.6H58.8V16.8H57.6zM61.2,15.6H62.4V16.8H61.2zM9.6,16.8H10.8V18H9.6zM10.8,16.8H12V18H10.8zM12,16.8H13.2V18H12zM15.6,16.8H16.8V18H15.6zM16.8,16.8H18V18H16.8zM18,16.8H19.2V18H18zM21.6,16.8H22.8V18H21.6zM24,16.8H25.2V18H24zM25.2,16.8H26.4V18H25.2zM28.8,16.8H30V18H28.8zM30,16.8H31.2V18H30zM33.6,16.8H34.8V18H33.6zM36,16.8H37.2V18H36zM37.2,16.8H38.4V18H37.2zM39.6,16.8H40.8V18H39.6zM42,16.8H43.2V18H42zM43.2,16.8H44.4V18H43.2zM45.6,16.8H46.8V18H45.6zM46.8,16.8H48V18H46.8zM48,16.8H49.2V18H48zM49.2,16.8H50.4V18H49.2zM50.4,16.8H51.6V18H50.4zM51.6,16.8H52.8V18H51.6zM56.4,16.8H57.6V18H56.4zM57.6,16.8H58.8V18H57.6zM58.8,16.8H60V18H58.8zM61.2,16.8H62.4V18H61.2zM62.4,16.8H63.6V18H62.4zM4.8,18H6V19.2H4.8zM6,18H7.2V19.2H6zM13.2,18H14.4V19.2H13.2zM15.6,18H16.8V19.2H15.6zM16.8,18H18V19.2H16.8zM20.4,18H21.6V19.2H20.4zM27.6,18H28.8V19.2H27.6zM28.8,18H30V19.2H28.8zM32.4,18H33.6V19.2H32.4zM34.8,18H36V19.2H34.8zM37.2,18H38.4V19.2H37.2zM38.4,18H39.6V19.2H38.4zM39.6,18H40.8V19.2H39.6zM40.8,18H42V19.2H40.8zM43.2,18H44.4V19.2H43.2zM44.4,18H45.6V19.2H44.4zM49.2,18H50.4V19.2H49.2zM56.4,18H57.6V19.2H56.4zM57.6,18H58.8V19.2H57.6zM61.2,18H62.4V19.2H61.2zM62.4,18H63.6V19.2H62.4zM7.2,19.2H8.4V20.4H7.2zM10.8,19.2H12V20.4H10.8zM12,19.2H13.2V20.4H12zM15.6,19.2H16.8V20.4H15.6zM16.8,19.2H18V20.4H16.8zM21.6,19.2H22.8V20.4H21.6zM22.8,19.2H24V20.4H22.8zM24,19.2H25.2V20.4H24zM32.4,19.2H33.6V20.4H32.4zM33.6,19.2H34.8V20.4H33.6zM34.8,19.2H36V20.4H34.8zM37.2,19.2H38.4V20.4H37.2zM39.6,19.2H40.8V20.4H39.6zM42,19.2H43.2V20.4H42zM45.6,19.2H46.8V20.4H45.6zM46.8,19.2H48V20.4H46.8zM48,19.2H49.2V20.4H48zM52.8,19.2H54V20.4H52.8zM56.4,19.2H57.6V20.4H56.4zM58.8,19.2H60V20.4H58.8zM60,19.2H61.2V20.4H60zM6,20.4H7.2V21.6H6zM8.4,20.4H9.6V21.6H8.4zM10.8,20.4H12V21.6H10.8zM13.2,20.4H14.4V21.6H13.2zM19.2,20.4H20.4V21.6H19.2zM20.4,20.4H21.6V21.6H20.4zM22.8,20.4H24V21.6H22.8zM27.6,20.4H28.8V21.6H27.6zM28.8,20.4H30V21.6H28.8zM31.2,20.4H32.4V21.6H31.2zM33.6,20.4H34.8V21.6H33.6zM37.2,20.4H38.4V21.6H37.2zM39.6,20.4H40.8V21.6H39.6zM40.8,20.4H42V21.6H40.8zM43.2,20.4H44.4V21.6H43.2zM48,20.4H49.2V21.6H48zM55.2,20.4H56.4V21.6H55.2zM56.4,20.4H57.6V21.6H56.4zM61.2,20.4H62.4V21.6H61.2zM7.2,21.6H8.4V22.8H7.2zM8.4,21.6H9.6V22.8H8.4zM12,21.6H13.2V22.8H12zM14.4,21.6H15.6V22.8H14.4zM16.8,21.6H18V22.8H16.8zM22.8,21.6H24V22.8H22.8zM26.4,21.6H27.6V22.8H26.4zM28.8,21.6H30V22.8H28.8zM30,21.6H31.2V22.8H30zM31.2,21.6H32.4V22.8H31.2zM34.8,21.6H36V22.8H34.8zM36,21.6H37.2V22.8H36zM38.4,21.6H39.6V22.8H38.4zM42,21.6H43.2V22.8H42zM44.4,21.6H45.6V22.8H44.4zM45.6,21.6H46.8V22.8H45.6zM46.8,21.6H48V22.8H46.8zM50.4,21.6H51.6V22.8H50.4zM51.6,21.6H52.8V22.8H51.6zM52.8,21.6H54V22.8H52.8zM56.4,21.6H57.6V22.8H56.4zM57.6,21.6H58.8V22.8H57.6zM58.8,21.6H60V22.8H58.8zM60,21.6H61.2V22.8H60zM61.2,21.6H62.4V22.8H61.2zM62.4,21.6H63.6V22.8H62.4zM4.8,22.8H6V24H4.8zM7.2,22.8H8.4V24H7.2zM14.4,22.8H15.6V24H14.4zM16.8,22.8H18V24H16.8zM19.2,22.8H20.4V24H19.2zM21.6,22.8H22.8V24H21.6zM22.8,22.8H24V24H22.8zM24,22.8H25.2V24H24zM27.6,22.8H28.8V24H27.6zM28.8,22.8H30V24H28.8zM31.2,22.8H32.4V24H31.2zM34.8,22.8H36V24H34.8zM36,22.8H37.2V24H36zM37.2,22.8H38.4V24H37.2zM38.4,22.8H39.6V24H38.4zM39.6,22.8H40.8V24H39.6zM40.8,22.8H42V24H40.8zM42,22.8H43.2V24H42zM43.2,22.8H44.4V24H43.2zM44.4,22.8H45.6V24H44.4zM46.8,22.8H48V24H46.8zM49.2,22.8H50.4V24H49.2zM52.8,22.8H54V24H52.8zM54,22.8H55.2V24H54zM55.2,22.8H56.4V24H55.2zM57.6,22.8H58.8V24H57.6zM62.4,22.8H63.6V24H62.4zM4.8,24H6V25.2H4.8zM7.2,24H8.4V25.2H7.2zM8.4,24H9.6V25.2H8.4zM9.6,24H10.8V25.2H9.6zM12,24H13.2V25.2H12zM13.2,24H14.4V25.2H13.2zM14.4,24H15.6V25.2H14.4zM15.6,24H16.8V25.2H15.6zM16.8,24H18V25.2H16.8zM19.2,24H20.4V25.2H19.2zM20.4,24H21.6V25.2H20.4zM21.6,24H22.8V25.2H21.6zM25.2,24H26.4V25.2H25.2zM26.4,24H27.6V25.2H26.4zM28.8,24H30V25.2H28.8zM30,24H31.2V25.2H30zM33.6,24H34.8V25.2H33.6zM39.6,24H40.8V25.2H39.6zM40.8,24H42V25.2H40.8zM42,24H43.2V25.2H42zM45.6,24H46.8V25.2H45.6zM46.8,24H48V25.2H46.8zM48,24H49.2V25.2H48zM49.2,24H50.4V25.2H49.2zM52.8,24H54V25.2H52.8zM54,24H55.2V25.2H54zM56.4,24H57.6V25.2H56.4zM60,24H61.2V25.2H60zM4.8,25.2H6V26.4H4.8zM6,25.2H7.2V26.4H6zM7.2,25.2H8.4V26.4H7.2zM8.4,25.2H9.6V26.4H8.4zM14.4,25.2H15.6V26.4H14.4zM16.8,25.2H18V26.4H16.8zM24,25.2H25.2V26.4H24zM25.2,25.2H26.4V26.4H25.2zM27.6,25.2H28.8V26.4H27.6zM31.2,25.2H32.4V26.4H31.2zM34.8,25.2H36V26.4H34.8zM37.2,25.2H38.4V26.4H37.2zM38.4,25.2H39.6V26.4H38.4zM39.6,25.2H40.8V26.4H39.6zM40.8,25.2H42V26.4H40.8zM42,25.2H43.2V26.4H42zM46.8,25.2H48V26.4H46.8zM48,25.2H49.2V26.4H48zM49.2,25.2H50.4V26.4H49.2zM51.6,25.2H52.8V26.4H51.6zM55.2,25.2H56.4V26.4H55.2zM57.6,25.2H58.8V26.4H57.6zM6,26.4H7.2V27.6H6zM8.4,26.4H9.6V27.6H8.4zM9.6,26.4H10.8V27.6H9.6zM12,26.4H13.2V27.6H12zM18,26.4H19.2V27.6H18zM22.8,26.4H24V27.6H22.8zM26.4,26.4H27.6V27.6H26.4zM27.6,26.4H28.8V27.6H27.6zM30,26.4H31.2V27.6H30zM31.2,26.4H32.4V27.6H31.2zM33.6,26.4H34.8V27.6H33.6zM36,26.4H37.2V27.6H36zM37.2,26.4H38.4V27.6H37.2zM43.2,26.4H44.4V27.6H43.2zM45.6,26.4H46.8V27.6H45.6zM46.8,26.4H48V27.6H46.8zM48,26.4H49.2V27.6H48zM50.4,26.4H51.6V27.6H50.4zM52.8,26.4H54V27.6H52.8zM56.4,26.4H57.6V27.6H56.4zM57.6,26.4H58.8V27.6H57.6zM58.8,26.4H60V27.6H58.8zM62.4,26.4H63.6V27.6H62.4zM9.6,27.6H10.8V28.8H9.6zM10.8,27.6H12V28.8H10.8zM13.2,27.6H14.4V28.8H13.2zM14.4,27.6H15.6V28.8H14.4zM16.8,27.6H18V28.8H16.8zM20.4,27.6H21.6V28.8H20.4zM22.8,27.6H24V28.8H22.8zM25.2,27.6H26.4V28.8H25.2zM27.6,27.6H28.8V28.8H27.6zM32.4,27.6H33.6V28.8H32.4zM38.4,27.6H39.6V28.8H38.4zM43.2,27.6H44.4V28.8H43.2zM46.8,27.6H48V28.8H46.8zM48,27.6H49.2V28.8H48zM49.2,27.6H50.4V28.8H49.2zM51.6,27.6H52.8V28.8H51.6zM55.2,27.6H56.4V28.8H55.2zM56.4,27.6H57.6V28.8H56.4zM57.6,27.6H58.8V28.8H57.6zM62.4,27.6H63.6V28.8H62.4zM4.8,28.8H6V30H4.8zM6,28.8H7.2V30H6zM9.6,28.8H10.8V30H9.6zM10.8,28.8H12V30H10.8zM12,28.8H13.2V30H12zM15.6,28.8H16.8V30H15.6zM18,28.8H19.2V30H18zM22.8,28.8H24V30H22.8zM25.2,28.8H26.4V30H25.2zM28.8,28.8H30V30H28.8zM30,28.8H31.2V30H30zM31.2,28.8H32.4V30H31.2zM32.4,28.8H33.6V30H32.4zM33.6,28.8H34.8V30H33.6zM34.8,28.8H36V30H34.8zM36,28.8H37.2V30H36zM39.6,28.8H40.8V30H39.6zM40.8,28.8H42V30H40.8zM42,28.8H43.2V30H42zM45.6,28.8H46.8V30H45.6zM46.8,28.8H48V30H46.8zM48,28.8H49.2V30H48zM49.2,28.8H50.4V30H49.2zM51.6,28.8H52.8V30H51.6zM52.8,28.8H54V30H52.8zM55.2,28.8H56.4V30H55.2zM60,28.8H61.2V30H60zM4.8,30H6V31.2H4.8zM10.8,30H12V31.2H10.8zM14.4,30H15.6V31.2H14.4zM15.6,30H16.8V31.2H15.6zM19.2,30H20.4V31.2H19.2zM21.6,30H22.8V31.2H21.6zM24,30H25.2V31.2H24zM26.4,30H27.6V31.2H26.4zM27.6,30H28.8V31.2H27.6zM32.4,30H33.6V31.2H32.4zM34.8,30H36V31.2H34.8zM39.6,30H40.8V31.2H39.6zM40.8,30H42V31.2H40.8zM42,30H43.2V31.2H42zM46.8,30H48V31.2H46.8zM48,30H49.2V31.2H48zM49.2,30H50.4V31.2H49.2zM54,30H55.2V31.2H54zM55.2,30H56.4V31.2H55.2zM56.4,30H57.6V31.2H56.4zM57.6,30H58.8V31.2H57.6zM58.8,30H60V31.2H58.8zM4.8,31.2H6V32.4H4.8zM6,31.2H7.2V32.4H6zM9.6,31.2H10.8V32.4H9.6zM10.8,31.2H12V32.4H10.8zM12,31.2H13.2V32.4H12zM13.2,31.2H14.4V32.4H13.2zM14.4,31.2H15.6V32.4H14.4zM16.8,31.2H18V32.4H16.8zM18,31.2H19.2V32.4H18zM21.6,31.2H22.8V32.4H21.6zM25.2,31.2H26.4V32.4H25.2zM26.4,31.2H27.6V32.4H26.4zM27.6,31.2H28.8V32.4H27.6zM28.8,31.2H30V32.4H28.8zM30,31.2H31.2V32.4H30zM31.2,31.2H32.4V32.4H31.2zM32.4,31.2H33.6V32.4H32.4zM33.6,31.2H34.8V32.4H33.6zM34.8,31.2H36V32.4H34.8zM36,31.2H37.2V32.4H36zM37.2,31.2H38.4V32.4H37.2zM44.4,31.2H45.6V32.4H44.4zM45.6,31.2H46.8V32.4H45.6zM46.8,31.2H48V32.4H46.8zM49.2,31.2H50.4V32.4H49.2zM50.4,31.2H51.6V32.4H50.4zM51.6,31.2H52.8V32.4H51.6zM52.8,31.2H54V32.4H52.8zM54,31.2H55.2V32.4H54zM55.2,31.2H56.4V32.4H55.2zM56.4,31.2H57.6V32.4H56.4zM57.6,31.2H58.8V32.4H57.6zM60,31.2H61.2V32.4H60zM61.2,31.2H62.4V32.4H61.2zM62.4,31.2H63.6V32.4H62.4zM4.8,32.4H6V33.6H4.8zM9.6,32.4H10.8V33.6H9.6zM14.4,32.4H15.6V33.6H14.4zM15.6,32.4H16.8V33.6H15.6zM18,32.4H19.2V33.6H18zM19.2,32.4H20.4V33.6H19.2zM22.8,32.4H24V33.6H22.8zM25.2,32.4H26.4V33.6H25.2zM26.4,32.4H27.6V33.6H26.4zM27.6,32.4H28.8V33.6H27.6zM28.8,32.4H30V33.6H28.8zM31.2,32.4H32.4V33.6H31.2zM36,32.4H37.2V33.6H36zM37.2,32.4H38.4V33.6H37.2zM38.4,32.4H39.6V33.6H38.4zM40.8,32.4H42V33.6H40.8zM43.2,32.4H44.4V33.6H43.2zM46.8,32.4H48V33.6H46.8zM49.2,32.4H50.4V33.6H49.2zM51.6,32.4H52.8V33.6H51.6zM52.8,32.4H54V33.6H52.8zM57.6,32.4H58.8V33.6H57.6zM61.2,32.4H62.4V33.6H61.2zM62.4,32.4H63.6V33.6H62.4zM4.8,33.6H6V34.8H4.8zM8.4,33.6H9.6V34.8H8.4zM9.6,33.6H10.8V34.8H9.6zM12,33.6H13.2V34.8H12zM14.4,33.6H15.6V34.8H14.4zM18,33.6H19.2V34.8H18zM19.2,33.6H20.4V34.8H19.2zM20.4,33.6H21.6V34.8H20.4zM21.6,33.6H22.8V34.8H21.6zM22.8,33.6H24V34.8H22.8zM24,33.6H25.2V34.8H24zM26.4,33.6H27.6V34.8H26.4zM28.8,33.6H30V34.8H28.8zM30,33.6H31.2V34.8H30zM31.2,33.6H32.4V34.8H31.2zM33.6,33.6H34.8V34.8H33.6zM36,33.6H37.2V34.8H36zM39.6,33.6H40.8V34.8H39.6zM42,33.6H43.2V34.8H42zM44.4,33.6H45.6V34.8H44.4zM45.6,33.6H46.8V34.8H45.6zM48,33.6H49.2V34.8H48zM49.2,33.6H50.4V34.8H49.2zM52.8,33.6H54V34.8H52.8zM55.2,33.6H56.4V34.8H55.2zM57.6,33.6H58.8V34.8H57.6zM60,33.6H61.2V34.8H60zM61.2,33.6H62.4V34.8H61.2zM62.4,33.6H63.6V34.8H62.4zM9.6,34.8H10.8V36H9.6zM14.4,34.8H15.6V36H14.4zM16.8,34.8H18V36H16.8zM19.2,34.8H20.4V36H19.2zM20.4,34.8H21.6V36H20.4zM21.6,34.8H22.8V36H21.6zM22.8,34.8H24V36H22.8zM25.2,34.8H26.4V36H25.2zM26.4,34.8H27.6V36H26.4zM31.2,34.8H32.4V36H31.2zM36,34.8H37.2V36H36zM37.2,34.8H38.4V36H37.2zM38.4,34.8H39.6V36H38.4zM39.6,34.8H40.8V36H39.6zM40.8,34.8H42V36H40.8zM44.4,34.8H45.6V36H44.4zM51.6,34.8H52.8V36H51.6zM52.8,34.8H54V36H52.8zM57.6,34.8H58.8V36H57.6zM58.8,34.8H60V36H58.8zM60,34.8H61.2V36H60zM6,36H7.2V37.2H6zM9.6,36H10.8V37.2H9.6zM10.8,36H12V37.2H10.8zM12,36H13.2V37.2H12zM13.2,36H14.4V37.2H13.2zM14.4,36H15.6V37.2H14.4zM18,36H19.2V37.2H18zM20.4,36H21.6V37.2H20.4zM21.6,36H22.8V37.2H21.6zM26.4,36H27.6V37.2H26.4zM27.6,36H28.8V37.2H27.6zM31.2,36H32.4V37.2H31.2zM32.4,36H33.6V37.2H32.4zM33.6,36H34.8V37.2H33.6zM34.8,36H36V37.2H34.8zM36,36H37.2V37.2H36zM37.2,36H38.4V37.2H37.2zM42,36H43.2V37.2H42zM45.6,36H46.8V37.2H45.6zM46.8,36H48V37.2H46.8zM48,36H49.2V37.2H48zM49.2,36H50.4V37.2H49.2zM50.4,36H51.6V37.2H50.4zM52.8,36H54V37.2H52.8zM54,36H55.2V37.2H54zM55.2,36H56.4V37.2H55.2zM56.4,36H57.6V37.2H56.4zM57.6,36H58.8V37.2H57.6zM61.2,36H62.4V37.2H61.2zM62.4,36H63.6V37.2H62.4zM9.6,37.2H10.8V38.4H9.6zM10.8,37.2H12V38.4H10.8zM16.8,37.2H18V38.4H16.8zM19.2,37.2H20.4V38.4H19.2zM20.4,37.2H21.6V38.4H20.4zM25.2,37.2H26.4V38.4H25.2zM27.6,37.2H28.8V38.4H27.6zM28.8,37.2H30V38.4H28.8zM31.2,37.2H32.4V38.4H31.2zM33.6,37.2H34.8V38.4H33.6zM36,37.2H37.2V38.4H36zM37.2,37.2H38.4V38.4H37.2zM38.4,37.2H39.6V38.4H38.4zM39.6,37.2H40.8V38.4H39.6zM43.2,37.2H44.4V38.4H43.2zM44.4,37.2H45.6V38.4H44.4zM49.2,37.2H50.4V38.4H49.2zM52.8,37.2H54V38.4H52.8zM54,37.2H55.2V38.4H54zM62.4,37.2H63.6V38.4H62.4zM4.8,38.4H6V39.6H4.8zM6,38.4H7.2V39.6H6zM7.2,38.4H8.4V39.6H7.2zM10.8,38.4H12V39.6H10.8zM12,38.4H13.2V39.6H12zM13.2,38.4H14.4V39.6H13.2zM16.8,38.4H18V39.6H16.8zM18,38.4H19.2V39.6H18zM19.2,38.4H20.4V39.6H19.2zM22.8,38.4H24V39.6H22.8zM24,38.4H25.2V39.6H24zM25.2,38.4H26.4V39.6H25.2zM26.4,38.4H27.6V39.6H26.4zM27.6,38.4H28.8V39.6H27.6zM31.2,38.4H32.4V39.6H31.2zM32.4,38.4H33.6V39.6H32.4zM34.8,38.4H36V39.6H34.8zM42,38.4H43.2V39.6H42zM46.8,38.4H48V39.6H46.8zM48,38.4H49.2V39.6H48zM50.4,38.4H51.6V39.6H50.4zM51.6,38.4H52.8V39.6H51.6zM55.2,38.4H56.4V39.6H55.2zM56.4,38.4H57.6V39.6H56.4zM60,38.4H61.2V39.6H60zM61.2,38.4H62.4V39.6H61.2zM4.8,39.6H6V40.8H4.8zM6,39.6H7.2V40.8H6zM8.4,39.6H9.6V40.8H8.4zM9.6,39.6H10.8V40.8H9.6zM10.8,39.6H12V40.8H10.8zM16.8,39.6H18V40.8H16.8zM18,39.6H19.2V40.8H18zM19.2,39.6H20.4V40.8H19.2zM21.6,39.6H22.8V40.8H21.6zM22.8,39.6H24V40.8H22.8zM25.2,39.6H26.4V40.8H25.2zM30,39.6H31.2V40.8H30zM31.2,39.6H32.4V40.8H31.2zM32.4,39.6H33.6V40.8H32.4zM33.6,39.6H34.8V40.8H33.6zM34.8,39.6H36V40.8H34.8zM40.8,39.6H42V40.8H40.8zM42,39.6H43.2V40.8H42zM43.2,39.6H44.4V40.8H43.2zM46.8,39.6H48V40.8H46.8zM49.2,39.6H50.4V40.8H49.2zM52.8,39.6H54V40.8H52.8zM54,39.6H55.2V40.8H54zM56.4,39.6H57.6V40.8H56.4zM7.2,40.8H8.4V42H7.2zM8.4,40.8H9.6V42H8.4zM9.6,40.8H10.8V42H9.6zM12,40.8H13.2V42H12zM13.2,40.8H14.4V42H13.2zM14.4,40.8H15.6V42H14.4zM15.6,40.8H16.8V42H15.6zM20.4,40.8H21.6V42H20.4zM21.6,40.8H22.8V42H21.6zM24,40.8H25.2V42H24zM27.6,40.8H28.8V42H27.6zM31.2,40.8H32.4V42H31.2zM32.4,40.8H33.6V42H32.4zM33.6,40.8H34.8V42H33.6zM34.8,40.8H36V42H34.8zM37.2,40.8H38.4V42H37.2zM39.6,40.8H40.8V42H39.6zM42,40.8H43.2V42H42zM43.2,40.8H44.4V42H43.2zM44.4,40.8H45.6V42H44.4zM45.6,40.8H46.8V42H45.6zM46.8,40.8H48V42H46.8zM48,40.8H49.2V42H48zM49.2,40.8H50.4V42H49.2zM50.4,40.8H51.6V42H50.4zM54,40.8H55.2V42H54zM55.2,40.8H56.4V42H55.2zM56.4,40.8H57.6V42H56.4zM61.2,40.8H62.4V42H61.2zM62.4,40.8H63.6V42H62.4zM9.6,42H10.8V43.2H9.6zM13.2,42H14.4V43.2H13.2zM14.4,42H15.6V43.2H14.4zM18,42H19.2V43.2H18zM19.2,42H20.4V43.2H19.2zM20.4,42H21.6V43.2H20.4zM22.8,42H24V43.2H22.8zM26.4,42H27.6V43.2H26.4zM30,42H31.2V43.2H30zM32.4,42H33.6V43.2H32.4zM33.6,42H34.8V43.2H33.6zM34.8,42H36V43.2H34.8zM36,42H37.2V43.2H36zM37.2,42H38.4V43.2H37.2zM38.4,42H39.6V43.2H38.4zM40.8,42H42V43.2H40.8zM43.2,42H44.4V43.2H43.2zM44.4,42H45.6V43.2H44.4zM45.6,42H46.8V43.2H45.6zM49.2,42H50.4V43.2H49.2zM50.4,42H51.6V43.2H50.4zM52.8,42H54V43.2H52.8zM56.4,42H57.6V43.2H56.4zM57.6,42H58.8V43.2H57.6zM4.8,43.2H6V44.4H4.8zM9.6,43.2H10.8V44.4H9.6zM10.8,43.2H12V44.4H10.8zM12,43.2H13.2V44.4H12zM16.8,43.2H18V44.4H16.8zM21.6,43.2H22.8V44.4H21.6zM25.2,43.2H26.4V44.4H25.2zM26.4,43.2H27.6V44.4H26.4zM27.6,43.2H28.8V44.4H27.6zM28.8,43.2H30V44.4H28.8zM30,43.2H31.2V44.4H30zM34.8,43.2H36V44.4H34.8zM36,43.2H37.2V44.4H36zM39.6,43.2H40.8V44.4H39.6zM42,43.2H43.2V44.4H42zM46.8,43.2H48V44.4H46.8zM48,43.2H49.2V44.4H48zM50.4,43.2H51.6V44.4H50.4zM51.6,43.2H52.8V44.4H51.6zM52.8,43.2H54V44.4H52.8zM54,43.2H55.2V44.4H54zM56.4,43.2H57.6V44.4H56.4zM57.6,43.2H58.8V44.4H57.6zM60,43.2H61.2V44.4H60zM62.4,43.2H63.6V44.4H62.4zM4.8,44.4H6V45.6H4.8zM7.2,44.4H8.4V45.6H7.2zM10.8,44.4H12V45.6H10.8zM13.2,44.4H14.4V45.6H13.2zM18,44.4H19.2V45.6H18zM24,44.4H25.2V45.6H24zM27.6,44.4H28.8V45.6H27.6zM30,44.4H31.2V45.6H30zM31.2,44.4H32.4V45.6H31.2zM32.4,44.4H33.6V45.6H32.4zM33.6,44.4H34.8V45.6H33.6zM34.8,44.4H36V45.6H34.8zM38.4,44.4H39.6V45.6H38.4zM39.6,44.4H40.8V45.6H39.6zM40.8,44.4H42V45.6H40.8zM46.8,44.4H48V45.6H46.8zM48,44.4H49.2V45.6H48zM49.2,44.4H50.4V45.6H49.2zM51.6,44.4H52.8V45.6H51.6zM54,44.4H55.2V45.6H54zM7.2,45.6H8.4V46.8H7.2zM12,45.6H13.2V46.8H12zM13.2,45.6H14.4V46.8H13.2zM14.4,45.6H15.6V46.8H14.4zM15.6,45.6H16.8V46.8H15.6zM16.8,45.6H18V46.8H16.8zM22.8,45.6H24V46.8H22.8zM24,45.6H25.2V46.8H24zM25.2,45.6H26.4V46.8H25.2zM26.4,45.6H27.6V46.8H26.4zM27.6,45.6H28.8V46.8H27.6zM30,45.6H31.2V46.8H30zM32.4,45.6H33.6V46.8H32.4zM34.8,45.6H36V46.8H34.8zM38.4,45.6H39.6V46.8H38.4zM39.6,45.6H40.8V46.8H39.6zM42,45.6H43.2V46.8H42zM46.8,45.6H48V46.8H46.8zM49.2,45.6H50.4V46.8H49.2zM50.4,45.6H51.6V46.8H50.4zM52.8,45.6H54V46.8H52.8zM55.2,45.6H56.4V46.8H55.2zM56.4,45.6H57.6V46.8H56.4zM58.8,45.6H60V46.8H58.8zM61.2,45.6H62.4V46.8H61.2zM62.4,45.6H63.6V46.8H62.4zM4.8,46.8H6V48H4.8zM8.4,46.8H9.6V48H8.4zM10.8,46.8H12V48H10.8zM14.4,46.8H15.6V48H14.4zM16.8,46.8H18V48H16.8zM21.6,46.8H22.8V48H21.6zM25.2,46.8H26.4V48H25.2zM30,46.8H31.2V48H30zM31.2,46.8H32.4V48H31.2zM32.4,46.8H33.6V48H32.4zM33.6,46.8H34.8V48H33.6zM34.8,46.8H36V48H34.8zM36,46.8H37.2V48H36zM37.2,46.8H38.4V48H37.2zM38.4,46.8H39.6V48H38.4zM40.8,46.8H42V48H40.8zM43.2,46.8H44.4V48H43.2zM44.4,46.8H45.6V48H44.4zM45.6,46.8H46.8V48H45.6zM56.4,46.8H57.6V48H56.4zM57.6,46.8H58.8V48H57.6zM61.2,46.8H62.4V48H61.2zM4.8,48H6V49.2H4.8zM6,48H7.2V49.2H6zM10.8,48H12V49.2H10.8zM12,48H13.2V49.2H12zM13.2,48H14.4V49.2H13.2zM20.4,48H21.6V49.2H20.4zM21.6,48H22.8V49.2H21.6zM26.4,48H27.6V49.2H26.4zM27.6,48H28.8V49.2H27.6zM32.4,48H33.6V49.2H32.4zM36,48H37.2V49.2H36zM39.6,48H40.8V49.2H39.6zM42,48H43.2V49.2H42zM44.4,48H45.6V49.2H44.4zM46.8,48H48V49.2H46.8zM48,48H49.2V49.2H48zM51.6,48H52.8V49.2H51.6zM52.8,48H54V49.2H52.8zM54,48H55.2V49.2H54zM57.6,48H58.8V49.2H57.6zM60,48H61.2V49.2H60zM62.4,48H63.6V49.2H62.4zM4.8,49.2H6V50.4H4.8zM6,49.2H7.2V50.4H6zM7.2,49.2H8.4V50.4H7.2zM8.4,49.2H9.6V50.4H8.4zM14.4,49.2H15.6V50.4H14.4zM15.6,49.2H16.8V50.4H15.6zM20.4,49.2H21.6V50.4H20.4zM22.8,49.2H24V50.4H22.8zM24,49.2H25.2V50.4H24zM25.2,49.2H26.4V50.4H25.2zM27.6,49.2H28.8V50.4H27.6zM30,49.2H31.2V50.4H30zM31.2,49.2H32.4V50.4H31.2zM32.4,49.2H33.6V50.4H32.4zM33.6,49.2H34.8V50.4H33.6zM34.8,49.2H36V50.4H34.8zM37.2,49.2H38.4V50.4H37.2zM39.6,49.2H40.8V50.4H39.6zM40.8,49.2H42V50.4H40.8zM48,49.2H49.2V50.4H48zM49.2,49.2H50.4V50.4H49.2zM51.6,49.2H52.8V50.4H51.6zM54,49.2H55.2V50.4H54zM56.4,49.2H57.6V50.4H56.4zM6,50.4H7.2V51.6H6zM10.8,50.4H12V51.6H10.8zM12,50.4H13.2V51.6H12zM13.2,50.4H14.4V51.6H13.2zM15.6,50.4H16.8V51.6H15.6zM16.8,50.4H18V51.6H16.8zM18,50.4H19.2V51.6H18zM20.4,50.4H21.6V51.6H20.4zM22.8,50.4H24V51.6H22.8zM25.2,50.4H26.4V51.6H25.2zM26.4,50.4H27.6V51.6H26.4zM27.6,50.4H28.8V51.6H27.6zM31.2,50.4H32.4V51.6H31.2zM32.4,50.4H33.6V51.6H32.4zM33.6,50.4H34.8V51.6H33.6zM34.8,50.4H36V51.6H34.8zM37.2,50.4H38.4V51.6H37.2zM45.6,50.4H46.8V51.6H45.6zM46.8,50.4H48V51.6H46.8zM48,50.4H49.2V51.6H48zM50.4,50.4H51.6V51.6H50.4zM51.6,50.4H52.8V51.6H51.6zM52.8,50.4H54V51.6H52.8zM55.2,50.4H56.4V51.6H55.2zM56.4,50.4H57.6V51.6H56.4zM58.8,50.4H60V51.6H58.8zM61.2,50.4H62.4V51.6H61.2zM62.4,50.4H63.6V51.6H62.4zM6,51.6H7.2V52.8H6zM7.2,51.6H8.4V52.8H7.2zM8.4,51.6H9.6V52.8H8.4zM13.2,51.6H14.4V52.8H13.2zM14.4,51.6H15.6V52.8H14.4zM15.6,51.6H16.8V52.8H15.6zM18,51.6H19.2V52.8H18zM20.4,51.6H21.6V52.8H20.4zM21.6,51.6H22.8V52.8H21.6zM27.6,51.6H28.8V52.8H27.6zM28.8,51.6H30V52.8H28.8zM30,51.6H31.2V52.8H30zM33.6,51.6H34.8V52.8H33.6zM36,51.6H37.2V52.8H36zM38.4,51.6H39.6V52.8H38.4zM39.6,51.6H40.8V52.8H39.6zM42,51.6H43.2V52.8H42zM43.2,51.6H44.4V52.8H43.2zM45.6,51.6H46.8V52.8H45.6zM46.8,51.6H48V52.8H46.8zM52.8,51.6H54V52.8H52.8zM54,51.6H55.2V52.8H54zM57.6,51.6H58.8V52.8H57.6zM61.2,51.6H62.4V52.8H61.2zM62.4,51.6H63.6V52.8H62.4zM4.8,52.8H6V54H4.8zM6,52.8H7.2V54H6zM7.2,52.8H8.4V54H7.2zM12,52.8H13.2V54H12zM16.8,52.8H18V54H16.8zM18,52.8H19.2V54H18zM20.4,52.8H21.6V54H20.4zM25.2,52.8H26.4V54H25.2zM28.8,52.8H30V54H28.8zM31.2,52.8H32.4V54H31.2zM32.4,52.8H33.6V54H32.4zM33.6,52.8H34.8V54H33.6zM34.8,52.8H36V54H34.8zM36,52.8H37.2V54H36zM39.6,52.8H40.8V54H39.6zM42,52.8H43.2V54H42zM45.6,52.8H46.8V54H45.6zM48,52.8H49.2V54H48zM50.4,52.8H51.6V54H50.4zM51.6,52.8H52.8V54H51.6zM52.8,52.8H54V54H52.8zM54,52.8H55.2V54H54zM55.2,52.8H56.4V54H55.2zM56.4,52.8H57.6V54H56.4zM57.6,52.8H58.8V54H57.6zM58.8,52.8H60V54H58.8zM60,52.8H61.2V54H60zM61.2,52.8H62.4V54H61.2zM14.4,54H15.6V55.2H14.4zM15.6,54H16.8V55.2H15.6zM19.2,54H20.4V55.2H19.2zM21.6,54H22.8V55.2H21.6zM25.2,54H26.4V55.2H25.2zM26.4,54H27.6V55.2H26.4zM27.6,54H28.8V55.2H27.6zM30,54H31.2V55.2H30zM31.2,54H32.4V55.2H31.2zM36,54H37.2V55.2H36zM39.6,54H40.8V55.2H39.6zM40.8,54H42V55.2H40.8zM42,54H43.2V55.2H42zM46.8,54H48V55.2H46.8zM52.8,54H54V55.2H52.8zM57.6,54H58.8V55.2H57.6zM4.8,55.2H6V56.4H4.8zM6,55.2H7.2V56.4H6zM7.2,55.2H8.4V56.4H7.2zM8.4,55.2H9.6V56.4H8.4zM9.6,55.2H10.8V56.4H9.6zM10.8,55.2H12V56.4H10.8zM12,55.2H13.2V56.4H12zM16.8,55.2H18V56.4H16.8zM20.4,55.2H21.6V56.4H20.4zM21.6,55.2H22.8V56.4H21.6zM22.8,55.2H24V56.4H22.8zM24,55.2H25.2V56.4H24zM26.4,55.2H27.6V56.4H26.4zM27.6,55.2H28.8V56.4H27.6zM28.8,55.2H30V56.4H28.8zM30,55.2H31.2V56.4H30zM31.2,55.2H32.4V56.4H31.2zM33.6,55.2H34.8V56.4H33.6zM36,55.2H37.2V56.4H36zM39.6,55.2H40.8V56.4H39.6zM42,55.2H43.2V56.4H42zM45.6,55.2H46.8V56.4H45.6zM48,55.2H49.2V56.4H48zM49.2,55.2H50.4V56.4H49.2zM50.4,55.2H51.6V56.4H50.4zM52.8,55.2H54V56.4H52.8zM55.2,55.2H56.4V56.4H55.2zM57.6,55.2H58.8V56.4H57.6zM61.2,55.2H62.4V56.4H61.2zM62.4,55.2H63.6V56.4H62.4zM4.8,56.4H6V57.6H4.8zM12,56.4H13.2V57.6H12zM14.4,56.4H15.6V57.6H14.4zM19.2,56.4H20.4V57.6H19.2zM21.6,56.4H22.8V57.6H21.6zM26.4,56.4H27.6V57.6H26.4zM27.6,56.4H28.8V57.6H27.6zM28.8,56.4H30V57.6H28.8zM30,56.4H31.2V57.6H30zM31.2,56.4H32.4V57.6H31.2zM36,56.4H37.2V57.6H36zM37.2,56.4H38.4V57.6H37.2zM38.4,56.4H39.6V57.6H38.4zM39.6,56.4H40.8V57.6H39.6zM43.2,56.4H44.4V57.6H43.2zM45.6,56.4H46.8V57.6H45.6zM46.8,56.4H48V57.6H46.8zM49.2,56.4H50.4V57.6H49.2zM52.8,56.4H54V57.6H52.8zM57.6,56.4H58.8V57.6H57.6zM61.2,56.4H62.4V57.6H61.2zM4.8,57.6H6V58.8H4.8zM7.2,57.6H8.4V58.8H7.2zM8.4,57.6H9.6V58.8H8.4zM9.6,57.6H10.8V58.8H9.6zM12,57.6H13.2V58.8H12zM14.4,57.6H15.6V58.8H14.4zM15.6,57.6H16.8V58.8H15.6zM18,57.6H19.2V58.8H18zM20.4,57.6H21.6V58.8H20.4zM22.8,57.6H24V58.8H22.8zM26.4,57.6H27.6V58.8H26.4zM31.2,57.6H32.4V58.8H31.2zM32.4,57.6H33.6V58.8H32.4zM33.6,57.6H34.8V58.8H33.6zM34.8,57.6H36V58.8H34.8zM36,57.6H37.2V58.8H36zM39.6,57.6H40.8V58.8H39.6zM40.8,57.6H42V58.8H40.8zM42,57.6H43.2V58.8H42zM46.8,57.6H48V58.8H46.8zM48,57.6H49.2V58.8H48zM49.2,57.6H50.4V58.8H49.2zM52.8,57.6H54V58.8H52.8zM54,57.6H55.2V58.8H54zM55.2,57.6H56.4V58.8H55.2zM56.4,57.6H57.6V58.8H56.4zM57.6,57.6H58.8V58.8H57.6zM58.8,57.6H60V58.8H58.8zM60,57.6H61.2V58.8H60zM61.2,57.6H62.4V58.8H61.2zM4.8,58.8H6V60H4.8zM7.2,58.8H8.4V60H7.2zM8.4,58.8H9.6V60H8.4zM9.6,58.8H10.8V60H9.6zM12,58.8H13.2V60H12zM14.4,58.8H15.6V60H14.4zM15.6,58.8H16.8V60H15.6zM18,58.8H19.2V60H18zM19.2,58.8H20.4V60H19.2zM21.6,58.8H22.8V60H21.6zM24,58.8H25.2V60H24zM25.2,58.8H26.4V60H25.2zM26.4,58.8H27.6V60H26.4zM27.6,58.8H28.8V60H27.6zM28.8,58.8H30V60H28.8zM30,58.8H31.2V60H30zM31.2,58.8H32.4V60H31.2zM32.4,58.8H33.6V60H32.4zM36,58.8H37.2V60H36zM39.6,58.8H40.8V60H39.6zM40.8,58.8H42V60H40.8zM46.8,58.8H48V60H46.8zM48,58.8H49.2V60H48zM49.2,58.8H50.4V60H49.2zM51.6,58.8H52.8V60H51.6zM52.8,58.8H54V60H52.8zM55.2,58.8H56.4V60H55.2zM56.4,58.8H57.6V60H56.4zM57.6,58.8H58.8V60H57.6zM61.2,58.8H62.4V60H61.2zM62.4,58.8H63.6V60H62.4zM4.8,60H6V61.2H4.8zM7.2,60H8.4V61.2H7.2zM8.4,60H9.6V61.2H8.4zM9.6,60H10.8V61.2H9.6zM12,60H13.2V61.2H12zM14.4,60H15.6V61.2H14.4zM15.6,60H16.8V61.2H15.6zM18,60H19.2V61.2H18zM19.2,60H20.4V61.2H19.2zM20.4,60H21.6V61.2H20.4zM22.8,60H24V61.2H22.8zM24,60H25.2V61.2H24zM25.2,60H26.4V61.2H25.2zM28.8,60H30V61.2H28.8zM31.2,60H32.4V61.2H31.2zM32.4,60H33.6V61.2H32.4zM33.6,60H34.8V61.2H33.6zM34.8,60H36V61.2H34.8zM36,60H37.2V61.2H36zM37.2,60H38.4V61.2H37.2zM38.4,60H39.6V61.2H38.4zM39.6,60H40.8V61.2H39.6zM42,60H43.2V61.2H42zM45.6,60H46.8V61.2H45.6zM48,60H49.2V61.2H48zM49.2,60H50.4V61.2H49.2zM50.4,60H51.6V61.2H50.4zM56.4,60H57.6V61.2H56.4zM58.8,60H60V61.2H58.8zM4.8,61.2H6V62.4H4.8zM12,61.2H13.2V62.4H12zM15.6,61.2H16.8V62.4H15.6zM18,61.2H19.2V62.4H18zM20.4,61.2H21.6V62.4H20.4zM22.8,61.2H24V62.4H22.8zM24,61.2H25.2V62.4H24zM25.2,61.2H26.4V62.4H25.2zM27.6,61.2H28.8V62.4H27.6zM28.8,61.2H30V62.4H28.8zM30,61.2H31.2V62.4H30zM33.6,61.2H34.8V62.4H33.6zM34.8,61.2H36V62.4H34.8zM39.6,61.2H40.8V62.4H39.6zM40.8,61.2H42V62.4H40.8zM43.2,61.2H44.4V62.4H43.2zM45.6,61.2H46.8V62.4H45.6zM46.8,61.2H48V62.4H46.8zM49.2,61.2H50.4V62.4H49.2zM52.8,61.2H54V62.4H52.8zM54,61.2H55.2V62.4H54zM55.2,61.2H56.4V62.4H55.2zM62.4,61.2H63.6V62.4H62.4zM4.8,62.4H6V63.6H4.8zM6,62.4H7.2V63.6H6zM7.2,62.4H8.4V63.6H7.2zM8.4,62.4H9.6V63.6H8.4zM9.6,62.4H10.8V63.6H9.6zM10.8,62.4H12V63.6H10.8zM12,62.4H13.2V63.6H12zM14.4,62.4H15.6V63.6H14.4zM16.8,62.4H18V63.6H16.8zM20.4,62.4H21.6V63.6H20.4zM22.8,62.4H24V63.6H22.8zM24,62.4H25.2V63.6H24zM25.2,62.4H26.4V63.6H25.2zM26.4,62.4H27.6V63.6H26.4zM28.8,62.4H30V63.6H28.8zM32.4,62.4H33.6V63.6H32.4zM33.6,62.4H34.8V63.6H33.6zM34.8,62.4H36V63.6H34.8zM36,62.4H37.2V63.6H36zM40.8,62.4H42V63.6H40.8zM42,62.4H43.2V63.6H42zM45.6,62.4H46.8V63.6H45.6zM48,62.4H49.2V63.6H48zM52.8,62.4H54V63.6H52.8zM58.8,62.4H60V63.6H58.8zM60,62.4H61.2V63.6H60zM61.2,62.4H62.4V63.6H61.2zM62.4,62.4H63.6V63.6H62.4z" id="qr-path" fill="#000000" fill-opacity="1" fill-rule="nonzero" stroke="none" /></svg>