<?xml version='1.0' encoding='UTF-8'?>
<title>ThePawLight qr_print</title>
<desc>Printed QR code → ThePawLight brand landing page: https://thepawlight.com/?utm_source=qr&amp;utm_medium=print&amp;utm_campaign=pawlight_launch&amp;utm_content=general</desc>
<svg width="58.8mm" height="58.8mm" version="1.1" viewBox="0 0 58.8 58.8" xmlns="http://www.w3.org/2000/svg"><path d="M4.8,4.8H6V6H4.8zM6,4.8H7.2V6H6zM7.2,4.8H8.4V6H7.2zM8.4,4.8H9.6V6H8.4zM9.6,4.8H10.8V6H9.6zM10.8,4.8H12V6H10.8zM12,4.8H13.2V6H12zM15.6,4.8H16.8V6H15.6zM18,4.8H19.2V6H18zM19.2,4.8H20.4V6H19.2zM20.4,4.8H21.6V6H20.4zM21.6,4.8H22.8V6H21.6zM22.8,4.8H24V6H22.8zM25.2,4.8H26.4V6H25.2zM31.2,4.8H32.4V6H31.2zM32.4,4.8H33.6V6H32.4zM36,4.8H37.2V6H36zM37.2,4.8H38.4V6H37.2zM39.6,4.8H40.8V6H39.6zM40.8,4.8H42V6H40.8zM42,4.8H43.2V6H42zM45.6,4.8H46.8V6H45.6zM46.8,4.8H48V6H46.8zM48,4.8H49.2V6H48zM49.2,4.8H50.4V6H49.2zM50.4,4.8H51.6V6H50.4zM51.6,4.8H52.8V6H51.6zM52.8,4.8H54V6H52.8zM4.8,6H6V7.2H4.8zM12,6H13.2V7.2H12zM16.8,6H18V7.2H16.8zM19.2,6H20.4V7.2H19.2zM20.4,6H21.6V7.2H20.4zM25.2,6H26.4V7.2H25.2zM26.4,6H27.6V7.2H26.4zM30,6H31.2V7.2H30zM32.4,6H33.6V7.2H32.4zM33.6,6H34.8V7.2H33.6zM36,6H37.2V7.2H36zM37.2,6H38.4V7.2H37.2zM40.8,6H42V7.2H40.8zM43.2,6H44.4V7.2H43.2zM45.6,6H46.8V7.2H45.6zM52.8,6H54V7.2H52.8zM4.8,7.2H6V8.4H4.8zM7.2,7.2H8.4V8.4H7.2zM8.4,7.2H9.6V8.4H8.4zM9.6,7.2H10.8V8.4H9.6zM12,7.2H13.2V8.4H12zM15.6,7.2H16.8V8.4H15.6zM16.8,7.2H18V8.4H16.8zM18,7.2H19.2V8.4H18zM20.4,7.2H21.6V8.4H20.4zM21.6,7.2H22.8V8.4H21.6zM22.8,7.2H24V8.4H22.8zM24,7.2H25.2V8.4H24zM25.2,7.2H26.4V8.4H25.2zM26.4,7.2H27.6V8.4H26.4zM28.8,7.2H30V8.4H28.8zM36,7.2H37.2V8.4H36zM37.2,7.2H38.4V8.4H37.2zM39.6,7.2H40.8V8.4H39.6zM45.6,7.2H46.8V8.4H45.6zM48,7.2H49.2V8.4H48zM49.2,7.2H50.4V8.4H49.2zM50.4,7.2H51.6V8.4H50.4zM52.8,7.2H54V8.4H52.8zM4.8,8.4H6V9.6H4.8zM7.2,8.4H8.4V9.6H7.2zM8.4,8.4H9.6V9.6H8.4zM9.6,8.4H10.8V9.6H9.6zM12,8.4H13.2V9.6H12zM16.8,8.4H18V9.6H16.8zM20.4,8.4H21.6V9.6H20.4zM21.6,8.4H22.8V9.6H21.6zM24,8.4H25.2V9.6H24zM25.2,8.4H26.4V9.6H25.2zM27.6,8.4H28.8V9.6H27.6zM28.8,8.4H30V9.6H28.8zM31.2,8.4H32.4V9.6H31.2zM32.4,8.4H33.6V9.6H32.4zM36,8.4H37.2V9.6H36zM37.2,8.4H38.4V9.6H37.2zM38.4,8.4H39.6V9.6H38.4zM40.8,8.4H42V9.6H40.8zM42,8.4H43.2V9.6H42zM43.2,8.4H44.4V9.6H43.2zM45.6,8.4H46.8V9.6H45.6zM48,8.4H49.2V9.6H48zM49.2,8.4H50.4V9.6H49.2zM50.4,8.4H51.6V9.6H50.4zM52.8,8.4H54V9.6H52.8zM4.8,9.6H6V10.8H4.8zM7.2,9.6H8.4V10.8H7.2zM8.4,9.6H9.6V10.8H8.4zM9.6,9.6H10.8V10.8H9.6zM12,9.6H13.2V10.8H12zM16.8,9.6H18V10.8H16.8zM20.4,9.6H21.6V10.8H20.4zM21.6,9.6H22.8V10.8H21.6zM24,9.6H25.2V10.8H24zM25.2,9.6H26.4V10.8H25.2zM26.4,9.6H27.6V10.8H26.4zM32.4,9.6H33.6V10.8H32.4zM34.8,9.6H36V10.8H34.8zM36,9.6H37.2V10.8H36zM37.2,9.6H38.4V10.8H37.2zM38.4,9.6H39.6V10.8H38.4zM40.8,9.6H42V10.8H40.8zM43.2,9.6H44.4V10.8H43.2zM45.6,9.6H46.8V10.8H45.6zM48,9.6H49.2V10.8H48zM49.2,9.6H50.4V10.8H49.2zM50.4,9.6H51.6V10.8H50.4zM52.8,9.6H54V10.8H52.8zM4.8,10.8H6V12H4.8zM12,10.8H13.2V12H12zM14.4,10.8H15.6V12H14.4zM15.6,10.8H16.8V12H15.6zM18,10.8H19.2V12H18zM19.2,10.8H20.4V12H19.2zM24,10.8H25.2V12H24zM25.2,10.8H26.4V12H25.2zM26.4,10.8H27.6V12H26.4zM27.6,10.8H28.8V12H27.6zM30,10.8H31.2V12H30zM31.2,10.8H32.4V12H31.2zM33.6,10.8H34.8V12H33.6zM37.2,10.8H38.4V12H37.2zM38.4,10.8H39.6V12H38.4zM40.8,10.8H42V12H40.8zM42,10.8H43.2V12H42zM45.6,10.8H46.8V12H45.6zM52.8,10.8H54V12H52.8zM4.8,12H6V13.2H4.8zM6,12H7.2V13.2H6zM7.2,12H8.4V13.2H7.2zM8.4,12H9.6V13.2H8.4zM9.6,12H10.8V13.2H9.6zM10.8,12H12V13.2H10.8zM12,12H13.2V13.2H12zM14.4,12H15.6V13.2H14.4zM16.8,12H18V13.2H16.8zM19.2,12H20.4V13.2H19.2zM21.6,12H22.8V13.2H21.6zM24,12H25.2V13.2H24zM26.4,12H27.6V13.2H26.4zM28.8,12H30V13.2H28.8zM31.2,12H32.4V13.2H31.2zM33.6,12H34.8V13.2H33.6zM36,12H37.2V13.2H36zM38.4,12H39.6V13.2H38.4zM40.8,12H42V13.2H40.8zM43.2,12H44.4V13.2H43.2zM45.6,12H46.8V13.2H45.6zM46.8,12H48V13.2H46.8zM48,12H49.2V13.2H48zM49.2,12H50.4V13.2H49.2zM50.4,12H51.6V13.2H50.4zM51.6,12H52.8V13.2H51.6zM52.8,12H54V13.2H52.8zM16.8,13.2H18V14.4H16.8zM19.2,13.2H20.4V14.4H19.2zM24,13.2H25.2V14.4H24zM25.2,13.2H26.4V14.4H25.2zM26.4,13.2H27.6V14.4H26.4zM28.8,13.2H30V14.4H28.8zM30,13.2H31.2V14.4H30zM31.2,13.2H32.4V14.4H31.2zM32.4,13.2H33.6V14.4H32.4zM33.6,13.2H34.8V14.4H33.6zM36,13.2H37.2V14.4H36zM37.2,13.2H38.4V14.4H37.2zM39.6,13.2H40.8V14.4H39.6zM43.2,13.2H44.4V14.4H43.2zM4.8,14.4H6V15.6H4.8zM8.4,14.4H9.6V15.6H8.4zM10.8,14.4H12V15.6H10.8zM12,14.4H13.2V15.6H12zM14.4,14.4H15.6V15.6H14.4zM21.6,14.4H22.8V15.6H21.6zM22.8,14.4H24V15.6H22.8zM24,14.4H25.2V15.6H24zM26.4,14.4H27.6V15.6H26.4zM27.6,14.4H28.8V15.6H27.6zM30,14.4H31.2V15.6H30zM31.2,14.4H32.4V15.6H31.2zM32.4,14.4H33.6V15.6H32.4zM34.8,14.4H36V15.6H34.8zM36,14.4H37.2V15.6H36zM43.2,14.4H44.4V15.6H43.2zM44.4,14.4H45.6V15.6H44.4zM46.8,14.4H48V15.6H46.8zM7.2,15.6H8.4V16.8H7.2zM8.4,15.6H9.6V16.8H8.4zM9.6,15.6H10.8V16.8H9.6zM13.2,15.6H14.4V16.8H13.2zM14.4,15.6H15.6V16.8H14.4zM15.6,15.6H16.8V16.8H15.6zM16.8,15.6H18V16.8H16.8zM18,15.6H19.2V16.8H18zM19.2,15.6H20.4V16.8H19.2zM20.4,15.6H21.6V16.8H20.4zM21.6,15.6H22.8V16.8H21.6zM25.2,15.6H26.4V16.8H25.2zM26.4,15.6H27.6V16.8H26.4zM30,15.6H31.2V16.8H30zM33.6,15.6H34.8V16.8H33.6zM34.8,15.6H36V16.8H34.8zM38.4,15.6H39.6V16.8H38.4zM43.2,15.6H44.4V16.8H43.2zM44.4,15.6H45.6V16.8H44.4zM45.6,15.6H46.8V16.8H45.6zM49.2,15.6H50.4V16.8H49.2zM50.4,15.6H51.6V16.8H50.4zM51.6,15.6H52.8V16.8H51.6zM52.8,15.6H54V16.8H52.8zM4.8,16.8H6V18H4.8zM6,16.8H7.2V18H6zM7.2,16.8H8.4V18H7.2zM8.4,16.8H9.6V18H8.4zM10.8,16.8H12V18H10.8zM12,16.8H13.2V18H12zM13.2,16.8H14.4V18H13.2zM15.6,16.8H16.8V18H15.6zM18,16.8H19.2V18H18zM19.2,16.8H20.4V18H19.2zM26.4,16.8H27.6V18H26.4zM27.6,16.8H28.8V18H27.6zM31.2,16.8H32.4V18H31.2zM33.6,16.8H34.8V18H33.6zM34.8,16.8H36V18H34.8zM38.4,16.8H39.6V18H38.4zM42,16.8H43.2V18H42zM44.4,16.8H45.6V18H44.4zM48,16.8H49.2V18H48zM49.2,16.8H50.4V18H49.2zM50.4,16.8H51.6V18H50.4zM51.6,16.8H52.8V18H51.6zM4.8,18H6V19.2H4.8zM7.2,18H8.4V19.2H7.2zM8.4,18H9.6V19.2H8.4zM13.2,18H14.4V19.2H13.2zM14.4,18H15.6V19.2H14.4zM15.6,18H16.8V19.2H15.6zM16.8,18H18V19.2H16.8zM18,18H19.2V19.2H18zM22.8,18H24V19.2H22.8zM27.6,18H28.8V19.2H27.6zM30,18H31.2V19.2H30zM34.8,18H36V19.2H34.8zM36,18H37.2V19.2H36zM37.2,18H38.4V19.2H37.2zM40.8,18H42V19.2H40.8zM44.4,18H45.6V19.2H44.4zM45.6,18H46.8V19.2H45.6zM46.8,18H48V19.2H46.8zM50.4,18H51.6V19.2H50.4zM4.8,19.2H6V20.4H4.8zM6,19.2H7.2V20.4H6zM7.2,19.2H8.4V20.4H7.2zM9.6,19.2H10.8V20.4H9.6zM10.8,19.2H12V20.4H10.8zM12,19.2H13.2V20.4H12zM13.2,19.2H14.4V20.4H13.2zM19.2,19.2H20.4V20.4H19.2zM20.4,19.2H21.6V20.4H20.4zM21.6,19.2H22.8V20.4H21.6zM22.8,19.2H24V20.4H22.8zM25.2,19.2H26.4V20.4H25.2zM27.6,19.2H28.8V20.4H27.6zM28.8,19.2H30V20.4H28.8zM30,19.2H31.2V20.4H30zM32.4,19.2H33.6V20.4H32.4zM33.6,19.2H34.8V20.4H33.6zM34.8,19.2H36V20.4H34.8zM38.4,19.2H39.6V20.4H38.4zM39.6,19.2H40.8V20.4H39.6zM42,19.2H43.2V20.4H42zM44.4,19.2H45.6V20.4H44.4zM45.6,19.2H46.8V20.4H45.6zM46.8,19.2H48V20.4H46.8zM49.2,19.2H50.4V20.4H49.2zM51.6,19.2H52.8V20.4H51.6zM52.8,19.2H54V20.4H52.8zM9.6,20.4H10.8V21.6H9.6zM10.8,20.4H12V21.6H10.8zM16.8,20.4H18V21.6H16.8zM22.8,20.4H24V21.6H22.8zM26.4,20.4H27.6V21.6H26.4zM27.6,20.4H28.8V21.6H27.6zM28.8,20.4H30V21.6H28.8zM31.2,20.4H32.4V21.6H31.2zM33.6,20.4H34.8V21.6H33.6zM34.8,20.4H36V21.6H34.8zM40.8,20.4H42V21.6H40.8zM43.2,20.4H44.4V21.6H43.2zM49.2,20.4H50.4V21.6H49.2zM50.4,20.4H51.6V21.6H50.4zM4.8,21.6H6V22.8H4.8zM6,21.6H7.2V22.8H6zM8.4,21.6H9.6V22.8H8.4zM9.6,21.6H10.8V22.8H9.6zM10.8,21.6H12V22.8H10.8zM12,21.6H13.2V22.8H12zM13.2,21.6H14.4V22.8H13.2zM15.6,21.6H16.8V22.8H15.6zM18,21.6H19.2V22.8H18zM19.2,21.6H20.4V22.8H19.2zM20.4,21.6H21.6V22.8H20.4zM24,21.6H25.2V22.8H24zM28.8,21.6H30V22.8H28.8zM32.4,21.6H33.6V22.8H32.4zM34.8,21.6H36V22.8H34.8zM36,21.6H37.2V22.8H36zM38.4,21.6H39.6V22.8H38.4zM39.6,21.6H40.8V22.8H39.6zM43.2,21.6H44.4V22.8H43.2zM45.6,21.6H46.8V22.8H45.6zM49.2,21.6H50.4V22.8H49.2zM51.6,21.6H52.8V22.8H51.6zM52.8,21.6H54V22.8H52.8zM6,22.8H7.2V24H6zM7.2,22.8H8.4V24H7.2zM9.6,22.8H10.8V24H9.6zM13.2,22.8H14.4V24H13.2zM14.4,22.8H15.6V24H14.4zM15.6,22.8H16.8V24H15.6zM19.2,22.8H20.4V24H19.2zM25.2,22.8H26.4V24H25.2zM26.4,22.8H27.6V24H26.4zM27.6,22.8H28.8V24H27.6zM30,22.8H31.2V24H30zM33.6,22.8H34.8V24H33.6zM34.8,22.8H36V24H34.8zM37.2,22.8H38.4V24H37.2zM38.4,22.8H39.6V24H38.4zM39.6,22.8H40.8V24H39.6zM40.8,22.8H42V24H40.8zM42,22.8H43.2V24H42zM43.2,22.8H44.4V24H43.2zM45.6,22.8H46.8V24H45.6zM48,22.8H49.2V24H48zM51.6,22.8H52.8V24H51.6zM52.8,22.8H54V24H52.8zM4.8,24H6V25.2H4.8zM6,24H7.2V25.2H6zM7.2,24H8.4V25.2H7.2zM8.4,24H9.6V25.2H8.4zM9.6,24H10.8V25.2H9.6zM12,24H13.2V25.2H12zM13.2,24H14.4V25.2H13.2zM15.6,24H16.8V25.2H15.6zM19.2,24H20.4V25.2H19.2zM20.4,24H21.6V25.2H20.4zM22.8,24H24V25.2H22.8zM24,24H25.2V25.2H24zM25.2,24H26.4V25.2H25.2zM27.6,24H28.8V25.2H27.6zM30,24H31.2V25.2H30zM31.2,24H32.4V25.2H31.2zM36,24H37.2V25.2H36zM39.6,24H40.8V25.2H39.6zM43.2,24H44.4V25.2H43.2zM46.8,24H48V25.2H46.8zM50.4,24H51.6V25.2H50.4zM51.6,24H52.8V25.2H51.6zM52.8,24H54V25.2H52.8zM4.8,25.2H6V26.4H4.8zM7.2,25.2H8.4V26.4H7.2zM14.4,25.2H15.6V26.4H14.4zM20.4,25.2H21.6V26.4H20.4zM21.6,25.2H22.8V26.4H21.6zM22.8,25.2H24V26.4H22.8zM24,25.2H25.2V26.4H24zM25.2,25.2H26.4V26.4H25.2zM32.4,25.2H33.6V26.4H32.4zM33.6,25.2H34.8V26.4H33.6zM38.4,25.2H39.6V26.4H38.4zM40.8,25.2H42V26.4H40.8zM45.6,25.2H46.8V26.4H45.6zM46.8,25.2H48V26.4H46.8zM50.4,25.2H51.6V26.4H50.4zM51.6,25.2H52.8V26.4H51.6zM52.8,25.2H54V26.4H52.8zM4.8,26.4H6V27.6H4.8zM7.2,26.4H8.4V27.6H7.2zM9.6,26.4H10.8V27.6H9.6zM12,26.4H13.2V27.6H12zM14.4,26.4H15.6V27.6H14.4zM16.8,26.4H18V27.6H16.8zM18,26.4H19.2V27.6H18zM20.4,26.4H21.6V27.6H20.4zM21.6,26.4H22.8V27.6H21.6zM22.8,26.4H24V27.6H22.8zM25.2,26.4H26.4V27.6H25.2zM28.8,26.4H30V27.6H28.8zM30,26.4H31.2V27.6H30zM34.8,26.4H36V27.6H34.8zM39.6,26.4H40.8V27.6H39.6zM40.8,26.4H42V27.6H40.8zM44.4,26.4H45.6V27.6H44.4zM45.6,26.4H46.8V27.6H45.6zM48,26.4H49.2V27.6H48zM50.4,26.4H51.6V27.6H50.4zM51.6,26.4H52.8V27.6H51.6zM52.8,26.4H54V27.6H52.8zM4.8,27.6H6V28.8H4.8zM7.2,27.6H8.4V28.8H7.2zM15.6,27.6H16.8V28.8H15.6zM18,27.6H19.2V28.8H18zM21.6,27.6H22.8V28.8H21.6zM22.8,27.6H24V28.8H22.8zM30,27.6H31.2V28.8H30zM31.2,27.6H32.4V28.8H31.2zM32.4,27.6H33.6V28.8H32.4zM37.2,27.6H38.4V28.8H37.2zM38.4,27.6H39.6V28.8H38.4zM39.6,27.6H40.8V28.8H39.6zM40.8,27.6H42V28.8H40.8zM42,27.6H43.2V28.8H42zM45.6,27.6H46.8V28.8H45.6zM46.8,27.6H48V28.8H46.8zM51.6,27.6H52.8V28.8H51.6zM52.8,27.6H54V28.8H52.8zM7.2,28.8H8.4V30H7.2zM9.6,28.8H10.8V30H9.6zM12,28.8H13.2V30H12zM16.8,28.8H18V30H16.8zM19.2,28.8H20.4V30H19.2zM21.6,28.8H22.8V30H21.6zM22.8,28.8H24V30H22.8zM25.2,28.8H26.4V30H25.2zM27.6,28.8H28.8V30H27.6zM28.8,28.8H30V30H28.8zM30,28.8H31.2V30H30zM32.4,28.8H33.6V30H32.4zM33.6,28.8H34.8V30H33.6zM34.8,28.8H36V30H34.8zM36,28.8H37.2V30H36zM37.2,28.8H38.4V30H37.2zM44.4,28.8H45.6V30H44.4zM45.6,28.8H46.8V30H45.6zM46.8,28.8H48V30H46.8zM50.4,28.8H51.6V30H50.4zM51.6,28.8H52.8V30H51.6zM52.8,28.8H54V30H52.8zM4.8,30H6V31.2H4.8zM8.4,30H9.6V31.2H8.4zM13.2,30H14.4V31.2H13.2zM19.2,30H20.4V31.2H19.2zM20.4,30H21.6V31.2H20.4zM21.6,30H22.8V31.2H21.6zM22.8,30H24V31.2H22.8zM33.6,30H34.8V31.2H33.6zM36,30H37.2V31.2H36zM38.4,30H39.6V31.2H38.4zM43.2,30H44.4V31.2H43.2zM45.6,30H46.8V31.2H45.6zM46.8,30H48V31.2H46.8zM50.4,30H51.6V31.2H50.4zM51.6,30H52.8V31.2H51.6zM52.8,30H54V31.2H52.8zM4.8,31.2H6V32.4H4.8zM6,31.2H7.2V32.4H6zM9.6,31.2H10.8V32.4H9.6zM10.8,31.2H12V32.4H10.8zM12,31.2H13.2V32.4H12zM13.2,31.2H14.4V32.4H13.2zM15.6,31.2H16.8V32.4H15.6zM16.8,31.2H18V32.4H16.8zM22.8,31.2H24V32.4H22.8zM24,31.2H25.2V32.4H24zM25.2,31.2H26.4V32.4H25.2zM27.6,31.2H28.8V32.4H27.6zM30,31.2H31.2V32.4H30zM31.2,31.2H32.4V32.4H31.2zM34.8,31.2H36V32.4H34.8zM40.8,31.2H42V32.4H40.8zM42,31.2H43.2V32.4H42zM44.4,31.2H45.6V32.4H44.4zM45.6,31.2H46.8V32.4H45.6zM48,31.2H49.2V32.4H48zM49.2,31.2H50.4V32.4H49.2zM51.6,31.2H52.8V32.4H51.6zM4.8,32.4H6V33.6H4.8zM7.2,32.4H8.4V33.6H7.2zM8.4,32.4H9.6V33.6H8.4zM13.2,32.4H14.4V33.6H13.2zM14.4,32.4H15.6V33.6H14.4zM18,32.4H19.2V33.6H18zM19.2,32.4H20.4V33.6H19.2zM20.4,32.4H21.6V33.6H20.4zM24,32.4H25.2V33.6H24zM26.4,32.4H27.6V33.6H26.4zM27.6,32.4H28.8V33.6H27.6zM30,32.4H31.2V33.6H30zM33.6,32.4H34.8V33.6H33.6zM34.8,32.4H36V33.6H34.8zM36,32.4H37.2V33.6H36zM38.4,32.4H39.6V33.6H38.4zM43.2,32.4H44.4V33.6H43.2zM48,32.4H49.2V33.6H48zM50.4,32.4H51.6V33.6H50.4zM51.6,32.4H52.8V33.6H51.6zM4.8,33.6H6V34.8H4.8zM12,33.6H13.2V34.8H12zM14.4,33.6H15.6V34.8H14.4zM18,33.6H19.2V34.8H18zM19.2,33.6H20.4V34.8H19.2zM20.4,33.6H21.6V34.8H20.4zM22.8,33.6H24V34.8H22.8zM25.2,33.6H26.4V34.8H25.2zM27.6,33.6H28.8V34.8H27.6zM28.8,33.6H30V34.8H28.8zM30,33.6H31.2V34.8H30zM32.4,33.6H33.6V34.8H32.4zM33.6,33.6H34.8V34.8H33.6zM34.8,33.6H36V34.8H34.8zM38.4,33.6H39.6V34.8H38.4zM39.6,33.6H40.8V34.8H39.6zM43.2,33.6H44.4V34.8H43.2zM44.4,33.6H45.6V34.8H44.4zM45.6,33.6H46.8V34.8H45.6zM46.8,33.6H48V34.8H46.8zM4.8,34.8H6V36H4.8zM6,34.8H7.2V36H6zM7.2,34.8H8.4V36H7.2zM8.4,34.8H9.6V36H8.4zM9.6,34.8H10.8V36H9.6zM10.8,34.8H12V36H10.8zM13.2,34.8H14.4V36H13.2zM15.6,34.8H16.8V36H15.6zM16.8,34.8H18V36H16.8zM18,34.8H19.2V36H18zM20.4,34.8H21.6V36H20.4zM22.8,34.8H24V36H22.8zM25.2,34.8H26.4V36H25.2zM26.4,34.8H27.6V36H26.4zM27.6,34.8H28.8V36H27.6zM28.8,34.8H30V36H28.8zM31.2,34.8H32.4V36H31.2zM33.6,34.8H34.8V36H33.6zM34.8,34.8H36V36H34.8zM39.6,34.8H40.8V36H39.6zM42,34.8H43.2V36H42zM45.6,34.8H46.8V36H45.6zM49.2,34.8H50.4V36H49.2zM6,36H7.2V37.2H6zM8.4,36H9.6V37.2H8.4zM10.8,36H12V37.2H10.8zM12,36H13.2V37.2H12zM13.2,36H14.4V37.2H13.2zM15.6,36H16.8V37.2H15.6zM19.2,36H20.4V37.2H19.2zM20.4,36H21.6V37.2H20.4zM21.6,36H22.8V37.2H21.6zM22.8,36H24V37.2H22.8zM24,36H25.2V37.2H24zM26.4,36H27.6V37.2H26.4zM28.8,36H30V37.2H28.8zM31.2,36H32.4V37.2H31.2zM32.4,36H33.6V37.2H32.4zM36,36H37.2V37.2H36zM38.4,36H39.6V37.2H38.4zM39.6,36H40.8V37.2H39.6zM40.8,36H42V37.2H40.8zM43.2,36H44.4V37.2H43.2zM44.4,36H45.6V37.2H44.4zM45.6,36H46.8V37.2H45.6zM48,36H49.2V37.2H48zM51.6,36H52.8V37.2H51.6zM52.8,36H54V37.2H52.8zM7.2,37.2H8.4V38.4H7.2zM9.6,37.2H10.8V38.4H9.6zM13.2,37.2H14.4V38.4H13.2zM15.6,37.2H16.8V38.4H15.6zM21.6,37.2H22.8V38.4H21.6zM25.2,37.2H26.4V38.4H25.2zM28.8,37.2H30V38.4H28.8zM30,37.2H31.2V38.4H30zM31.2,37.2H32.4V38.4H31.2zM33.6,37.2H34.8V38.4H33.6zM34.8,37.2H36V38.4H34.8zM36,37.2H37.2V38.4H36zM37.2,37.2H38.4V38.4H37.2zM39.6,37.2H40.8V38.4H39.6zM40.8,37.2H42V38.4H40.8zM43.2,37.2H44.4V38.4H43.2zM6,38.4H7.2V39.6H6zM8.4,38.4H9.6V39.6H8.4zM9.6,38.4H10.8V39.6H9.6zM10.8,38.4H12V39.6H10.8zM12,38.4H13.2V39.6H12zM16.8,38.4H18V39.6H16.8zM20.4,38.4H21.6V39.6H20.4zM25.2,38.4H26.4V39.6H25.2zM28.8,38.4H30V39.6H28.8zM30,38.4H31.2V39.6H30zM31.2,38.4H32.4V39.6H31.2zM33.6,38.4H34.8V39.6H33.6zM34.8,38.4H36V39.6H34.8zM38.4,38.4H39.6V39.6H38.4zM39.6,38.4H40.8V39.6H39.6zM43.2,38.4H44.4V39.6H43.2zM44.4,38.4H45.6V39.6H44.4zM6,39.6H7.2V40.8H6zM10.8,39.6H12V40.8H10.8zM16.8,39.6H18V40.8H16.8zM18,39.6H19.2V40.8H18zM22.8,39.6H24V40.8H22.8zM24,39.6H25.2V40.8H24zM25.2,39.6H26.4V40.8H25.2zM31.2,39.6H32.4V40.8H31.2zM32.4,39.6H33.6V40.8H32.4zM33.6,39.6H34.8V40.8H33.6zM38.4,39.6H39.6V40.8H38.4zM40.8,39.6H42V40.8H40.8zM45.6,39.6H46.8V40.8H45.6zM46.8,39.6H48V40.8H46.8zM51.6,39.6H52.8V40.8H51.6zM52.8,39.6H54V40.8H52.8zM4.8,40.8H6V42H4.8zM8.4,40.8H9.6V42H8.4zM12,40.8H13.2V42H12zM18,40.8H19.2V42H18zM21.6,40.8H22.8V42H21.6zM22.8,40.8H24V42H22.8zM24,40.8H25.2V42H24zM28.8,40.8H30V42H28.8zM31.2,40.8H32.4V42H31.2zM38.4,40.8H39.6V42H38.4zM40.8,40.8H42V42H40.8zM43.2,40.8H44.4V42H43.2zM46.8,40.8H48V42H46.8zM49.2,40.8H50.4V42H49.2zM51.6,40.8H52.8V42H51.6zM52.8,40.8H54V42H52.8zM8.4,42H9.6V43.2H8.4zM10.8,42H12V43.2H10.8zM13.2,42H14.4V43.2H13.2zM14.4,42H15.6V43.2H14.4zM15.6,42H16.8V43.2H15.6zM16.8,42H18V43.2H16.8zM18,42H19.2V43.2H18zM19.2,42H20.4V43.2H19.2zM21.6,42H22.8V43.2H21.6zM25.2,42H26.4V43.2H25.2zM27.6,42H28.8V43.2H27.6zM30,42H31.2V43.2H30zM32.4,42H33.6V43.2H32.4zM33.6,42H34.8V43.2H33.6zM36,42H37.2V43.2H36zM39.6,42H40.8V43.2H39.6zM43.2,42H44.4V43.2H43.2zM44.4,42H45.6V43.2H44.4zM46.8,42H48V43.2H46.8zM49.2,42H50.4V43.2H49.2zM52.8,42H54V43.2H52.8zM4.8,43.2H6V44.4H4.8zM8.4,43.2H9.6V44.4H8.4zM12,43.2H13.2V44.4H12zM13.2,43.2H14.4V44.4H13.2zM14.4,43.2H15.6V44.4H14.4zM21.6,43.2H22.8V44.4H21.6zM30,43.2H31.2V44.4H30zM33.6,43.2H34.8V44.4H33.6zM34.8,43.2H36V44.4H34.8zM36,43.2H37.2V44.4H36zM37.2,43.2H38.4V44.4H37.2zM38.4,43.2H39.6V44.4H38.4zM43.2,43.2H44.4V44.4H43.2zM44.4,43.2H45.6V44.4H44.4zM45.6,43.2H46.8V44.4H45.6zM46.8,43.2H48V44.4H46.8zM48,43.2H49.2V44.4H48zM49.2,43.2H50.4V44.4H49.2zM50.4,43.2H51.6V44.4H50.4zM14.4,44.4H15.6V45.6H14.4zM15.6,44.4H16.8V45.6H15.6zM16.8,44.4H18V45.6H16.8zM19.2,44.4H20.4V45.6H19.2zM25.2,44.4H26.4V45.6H25.2zM28.8,44.4H30V45.6H28.8zM30,44.4H31.2V45.6H30zM33.6,44.4H34.8V45.6H33.6zM34.8,44.4H36V45.6H34.8zM36,44.4H37.2V45.6H36zM38.4,44.4H39.6V45.6H38.4zM42,44.4H43.2V45.6H42zM43.2,44.4H44.4V45.6H43.2zM48,44.4H49.2V45.6H48zM52.8,44.4H54V45.6H52.8zM4.8,45.6H6V46.8H4.8zM6,45.6H7.2V46.8H6zM7.2,45.6H8.4V46.8H7.2zM8.4,45.6H9.6V46.8H8.4zM9.6,45.6H10.8V46.8H9.6zM10.8,45.6H12V46.8H10.8zM12,45.6H13.2V46.8H12zM19.2,45.6H20.4V46.8H19.2zM20.4,45.6H21.6V46.8H20.4zM22.8,45.6H24V46.8H22.8zM24,45.6H25.2V46.8H24zM26.4,45.6H27.6V46.8H26.4zM27.6,45.6H28.8V46.8H27.6zM31.2,45.6H32.4V46.8H31.2zM33.6,45.6H34.8V46.8H33.6zM34.8,45.6H36V46.8H34.8zM38.4,45.6H39.6V46.8H38.4zM39.6,45.6H40.8V46.8H39.6zM43.2,45.6H44.4V46.8H43.2zM45.6,45.6H46.8V46.8H45.6zM48,45.6H49.2V46.8H48zM49.2,45.6H50.4V46.8H49.2zM51.6,45.6H52.8V46.8H51.6zM4.8,46.8H6V48H4.8zM12,46.8H13.2V48H12zM14.4,46.8H15.6V48H14.4zM15.6,46.8H16.8V48H15.6zM16.8,46.8H18V48H16.8zM19.2,46.8H20.4V48H19.2zM20.4,46.8H21.6V48H20.4zM21.6,46.8H22.8V48H21.6zM22.8,46.8H24V48H22.8zM26.4,46.8H27.6V48H26.4zM30,46.8H31.2V48H30zM31.2,46.8H32.4V48H31.2zM34.8,46.8H36V48H34.8zM36,46.8H37.2V48H36zM37.2,46.8H38.4V48H37.2zM40.8,46.8H42V48H40.8zM43.2,46.8H44.4V48H43.2zM48,46.8H49.2V48H48zM50.4,46.8H51.6V48H50.4zM4.8,48H6V49.2H4.8zM7.2,48H8.4V49.2H7.2zM8.4,48H9.6V49.2H8.4zM9.6,48H10.8V49.2H9.6zM12,48H13.2V49.2H12zM18,48H19.2V49.2H18zM21.6,48H22.8V49.2H21.6zM22.8,48H24V49.2H22.8zM26.4,48H27.6V49.2H26.4zM28.8,48H30V49.2H28.8zM30,48H31.2V49.2H30zM33.6,48H34.8V49.2H33.6zM34.8,48H36V49.2H34.8zM36,48H37.2V49.2H36zM38.4,48H39.6V49.2H38.4zM39.6,48H40.8V49.2H39.6zM43.2,48H44.4V49.2H43.2zM44.4,48H45.6V49.2H44.4zM45.6,48H46.8V49.2H45.6zM46.8,48H48V49.2H46.8zM48,48H49.2V49.2H48zM49.2,48H50.4V49.2H49.2zM51.6,48H52.8V49.2H51.6zM52.8,48H54V49.2H52.8zM4.8,49.2H6V50.4H4.8zM7.2,49.2H8.4V50.4H7.2zM8.4,49.2H9.6V50.4H8.4zM9.6,49.2H10.8V50.4H9.6zM12,49.2H13.2V50.4H12zM14.4,49.2H15.6V50.4H14.4zM16.8,49.2H18V50.4H16.8zM20.4,49.2H21.6V50.4H20.4zM24,49.2H25.2V50.4H24zM26.4,49.2H27.6V50.4H26.4zM27.6,49.2H28.8V50.4H27.6zM28.8,49.2H30V50.4H28.8zM30,49.2H31.2V50.4H30zM33.6,49.2H34.8V50.4H33.6zM34.8,49.2H36V50.4H34.8zM36,49.2H37.2V50.4H36zM38.4,49.2H39.6V50.4H38.4zM39.6,49.2H40.8V50.4H39.6zM42,49.2H43.2V50.4H42zM43.2,49.2H44.4V50.4H43.2zM44.4,49.2H45.6V50.4H44.4zM45.6,49.2H46.8V50.4H45.6zM48,49.2H49.2V50.4H48zM51.6,49.2H52.8V50.4H51.6zM4.8,50.4H6V51.6H4.8zM7.2,50.4H8.4V51.6H7.2zM8.4,50.4H9.6V51.6H8.4zM9.6,50.4H10.8V51.6H9.6zM12,50.4H13.2V51.6H12zM15.6,50.4H16.8V51.6H15.6zM16.8,50.4H18V51.6H16.8zM25.2,50.4H26.4V51.6H25.2zM28.8,50.4H30V51.6H28.8zM30,50.4H31.2V51.6H30zM31.2,50.4H32.4V51.6H31.2zM32.4,50.4H33.6V51.6H32.4zM38.4,50.4H39.6V51.6H38.4zM39.6,50.4H40.8V51.6H39.6zM42,50.4H43.2V51.6H42zM43.2,50.4H44.4V51.6H43.2zM48,50.4H49.2V51.6H48zM49.2,50.4H50.4V51.6H49.2zM50.4,50.4H51.6V51.6H50.4zM51.6,50.4H52.8V51.6H51.6zM52.8,50.4H54V51.6H52.8zM4.8,51.6H6V52.8H4.8zM12,51.6H13.2V52.8H12zM16.8,51.6H18V52.8H16.8zM18,51.6H19.2V52.8H18zM19.2,51.6H20.4V52.8H19.2zM24,51.6H25.2V52.8H24zM27.6,51.6H28.8V52.8H27.6zM28.8,51.6H30V52.8H28.8zM30,51.6H31.2V52.8H30zM31.2,51.6H32.4V52.8H31.2zM33.6,51.6H34.8V52.8H33.6zM34.8,51.6H36V52.8H34.8zM36,51.6H37.2V52.8H36zM39.6,51.6H40.8V52.8H39.6zM40.8,51.6H42V52.8H40.8zM42,51.6H43.2V52.8H42zM43.2,51.6H44.4V52.8H43.2zM44.4,51.6H45.6V52.8H44.4zM46.8,51.6H48V52.8H46.8zM51.6,51.6H52.8V52.8H51.6zM4.8,52.8H6V54H4.8zM6,52.8H7.2V54H6zM7.2,52.8H8.4V54H7.2zM8.4,52.8H9.6V54H8.4zM9.6,52.8H10.8V54H9.6zM10.8,52.8H12V54H10.8zM12,52.8H13.2V54H12zM14.4,52.8H15.6V54H14.4zM16.8,52.8H18V54H16.8zM19.2,52.8H20.4V54H19.2zM22.8,52.8H24V54H22.8zM25.2,52.8H26.4V54H25.2zM27.6,52.8H28.8V54H27.6zM28.8,52.8H30V54H28.8zM30,52.8H31.2V54H30zM31.2,52.8H32.4V54H31.2zM32.4,52.8H33.6V54H32.4zM33.6,52.8H34.8V54H33.6zM38.4,52.8H39.6V54H38.4zM39.6,52.8H40.8V54H39.6zM43.2,52.8H44.4V54H43.2zM45.6,52.8H46.8V54H45.6zM46.8,52.8H48V54H46.8zM48,52.8H49.2V54H48zM49.2,52.8H50.4V54H49.2zM51.6,52.8H52.8V54H51.6z" id="qr-path" fill="#000000" fill-opacity="1" fill-rule="nonzero" stroke="none" /></svg>