<?xml version='1.0' encoding='UTF-8'?>
<title>ThePawLight reddit_thread</title>
<desc>Reddit thread/share link → ThePawLight brand landing page: https://thepawlight.com/?utm_source=reddit&amp;utm_medium=social&amp;utm_campaign=pawlight_launch&amp;utm_content=thread</desc>
<svg width="63.6mm" height="63.6mm" version="1.1" viewBox="0 0 63.6 63.6" xmlns="http://www.w3.org/2000/svg"><path d="M4.8,4.8H6V6H4.8zM6,4.8H7.2V6H6zM7.2,4.8H8.4V6H7.2zM8.4,4.8H9.6V6H8.4zM9.6,4.8H10.8V6H9.6zM10.8,4.8H12V6H10.8zM12,4.8H13.2V6H12zM14.4,4.8H15.6V6H14.4zM18,4.8H19.2V6H18zM28.8,4.8H30V6H28.8zM32.4,4.8H33.6V6H32.4zM36,4.8H37.2V6H36zM39.6,4.8H40.8V6H39.6zM40.8,4.8H42V6H40.8zM48,4.8H49.2V6H48zM50.4,4.8H51.6V6H50.4zM51.6,4.8H52.8V6H51.6zM52.8,4.8H54V6H52.8zM54,4.8H55.2V6H54zM55.2,4.8H56.4V6H55.2zM56.4,4.8H57.6V6H56.4zM57.6,4.8H58.8V6H57.6zM4.8,6H6V7.2H4.8zM12,6H13.2V7.2H12zM19.2,6H20.4V7.2H19.2zM20.4,6H21.6V7.2H20.4zM22.8,6H24V7.2H22.8zM25.2,6H26.4V7.2H25.2zM26.4,6H27.6V7.2H26.4zM28.8,6H30V7.2H28.8zM30,6H31.2V7.2H30zM31.2,6H32.4V7.2H31.2zM33.6,6H34.8V7.2H33.6zM38.4,6H39.6V7.2H38.4zM43.2,6H44.4V7.2H43.2zM46.8,6H48V7.2H46.8zM50.4,6H51.6V7.2H50.4zM57.6,6H58.8V7.2H57.6zM4.8,7.2H6V8.4H4.8zM7.2,7.2H8.4V8.4H7.2zM8.4,7.2H9.6V8.4H8.4zM9.6,7.2H10.8V8.4H9.6zM12,7.2H13.2V8.4H12zM15.6,7.2H16.8V8.4H15.6zM18,7.2H19.2V8.4H18zM20.4,7.2H21.6V8.4H20.4zM22.8,7.2H24V8.4H22.8zM24,7.2H25.2V8.4H24zM25.2,7.2H26.4V8.4H25.2zM26.4,7.2H27.6V8.4H26.4zM31.2,7.2H32.4V8.4H31.2zM33.6,7.2H34.8V8.4H33.6zM37.2,7.2H38.4V8.4H37.2zM43.2,7.2H44.4V8.4H43.2zM44.4,7.2H45.6V8.4H44.4zM46.8,7.2H48V8.4H46.8zM50.4,7.2H51.6V8.4H50.4zM52.8,7.2H54V8.4H52.8zM54,7.2H55.2V8.4H54zM55.2,7.2H56.4V8.4H55.2zM57.6,7.2H58.8V8.4H57.6zM4.8,8.4H6V9.6H4.8zM7.2,8.4H8.4V9.6H7.2zM8.4,8.4H9.6V9.6H8.4zM9.6,8.4H10.8V9.6H9.6zM12,8.4H13.2V9.6H12zM14.4,8.4H15.6V9.6H14.4zM15.6,8.4H16.8V9.6H15.6zM19.2,8.4H20.4V9.6H19.2zM21.6,8.4H22.8V9.6H21.6zM22.8,8.4H24V9.6H22.8zM27.6,8.4H28.8V9.6H27.6zM30,8.4H31.2V9.6H30zM33.6,8.4H34.8V9.6H33.6zM34.8,8.4H36V9.6H34.8zM38.4,8.4H39.6V9.6H38.4zM39.6,8.4H40.8V9.6H39.6zM42,8.4H43.2V9.6H42zM44.4,8.4H45.6V9.6H44.4zM46.8,8.4H48V9.6H46.8zM48,8.4H49.2V9.6H48zM50.4,8.4H51.6V9.6H50.4zM52.8,8.4H54V9.6H52.8zM54,8.4H55.2V9.6H54zM55.2,8.4H56.4V9.6H55.2zM57.6,8.4H58.8V9.6H57.6zM4.8,9.6H6V10.8H4.8zM7.2,9.6H8.4V10.8H7.2zM8.4,9.6H9.6V10.8H8.4zM9.6,9.6H10.8V10.8H9.6zM12,9.6H13.2V10.8H12zM14.4,9.6H15.6V10.8H14.4zM16.8,9.6H18V10.8H16.8zM18,9.6H19.2V10.8H18zM19.2,9.6H20.4V10.8H19.2zM20.4,9.6H21.6V10.8H20.4zM24,9.6H25.2V10.8H24zM25.2,9.6H26.4V10.8H25.2zM28.8,9.6H30V10.8H28.8zM30,9.6H31.2V10.8H30zM31.2,9.6H32.4V10.8H31.2zM32.4,9.6H33.6V10.8H32.4zM33.6,9.6H34.8V10.8H33.6zM34.8,9.6H36V10.8H34.8zM36,9.6H37.2V10.8H36zM39.6,9.6H40.8V10.8H39.6zM40.8,9.6H42V10.8H40.8zM43.2,9.6H44.4V10.8H43.2zM44.4,9.6H45.6V10.8H44.4zM45.6,9.6H46.8V10.8H45.6zM46.8,9.6H48V10.8H46.8zM48,9.6H49.2V10.8H48zM50.4,9.6H51.6V10.8H50.4zM52.8,9.6H54V10.8H52.8zM54,9.6H55.2V10.8H54zM55.2,9.6H56.4V10.8H55.2zM57.6,9.6H58.8V10.8H57.6zM4.8,10.8H6V12H4.8zM12,10.8H13.2V12H12zM14.4,10.8H15.6V12H14.4zM16.8,10.8H18V12H16.8zM20.4,10.8H21.6V12H20.4zM22.8,10.8H24V12H22.8zM25.2,10.8H26.4V12H25.2zM27.6,10.8H28.8V12H27.6zM28.8,10.8H30V12H28.8zM33.6,10.8H34.8V12H33.6zM36,10.8H37.2V12H36zM37.2,10.8H38.4V12H37.2zM43.2,10.8H44.4V12H43.2zM44.4,10.8H45.6V12H44.4zM50.4,10.8H51.6V12H50.4zM57.6,10.8H58.8V12H57.6zM4.8,12H6V13.2H4.8zM6,12H7.2V13.2H6zM7.2,12H8.4V13.2H7.2zM8.4,12H9.6V13.2H8.4zM9.6,12H10.8V13.2H9.6zM10.8,12H12V13.2H10.8zM12,12H13.2V13.2H12zM14.4,12H15.6V13.2H14.4zM16.8,12H18V13.2H16.8zM19.2,12H20.4V13.2H19.2zM21.6,12H22.8V13.2H21.6zM24,12H25.2V13.2H24zM26.4,12H27.6V13.2H26.4zM28.8,12H30V13.2H28.8zM31.2,12H32.4V13.2H31.2zM33.6,12H34.8V13.2H33.6zM36,12H37.2V13.2H36zM38.4,12H39.6V13.2H38.4zM40.8,12H42V13.2H40.8zM43.2,12H44.4V13.2H43.2zM45.6,12H46.8V13.2H45.6zM48,12H49.2V13.2H48zM50.4,12H51.6V13.2H50.4zM51.6,12H52.8V13.2H51.6zM52.8,12H54V13.2H52.8zM54,12H55.2V13.2H54zM55.2,12H56.4V13.2H55.2zM56.4,12H57.6V13.2H56.4zM57.6,12H58.8V13.2H57.6zM14.4,13.2H15.6V14.4H14.4zM16.8,13.2H18V14.4H16.8zM19.2,13.2H20.4V14.4H19.2zM24,13.2H25.2V14.4H24zM25.2,13.2H26.4V14.4H25.2zM26.4,13.2H27.6V14.4H26.4zM27.6,13.2H28.8V14.4H27.6zM28.8,13.2H30V14.4H28.8zM33.6,13.2H34.8V14.4H33.6zM34.8,13.2H36V14.4H34.8zM36,13.2H37.2V14.4H36zM37.2,13.2H38.4V14.4H37.2zM39.6,13.2H40.8V14.4H39.6zM43.2,13.2H44.4V14.4H43.2zM45.6,13.2H46.8V14.4H45.6zM4.8,14.4H6V15.6H4.8zM9.6,14.4H10.8V15.6H9.6zM12,14.4H13.2V15.6H12zM13.2,14.4H14.4V15.6H13.2zM14.4,14.4H15.6V15.6H14.4zM16.8,14.4H18V15.6H16.8zM20.4,14.4H21.6V15.6H20.4zM25.2,14.4H26.4V15.6H25.2zM27.6,14.4H28.8V15.6H27.6zM28.8,14.4H30V15.6H28.8zM30,14.4H31.2V15.6H30zM31.2,14.4H32.4V15.6H31.2zM32.4,14.4H33.6V15.6H32.4zM33.6,14.4H34.8V15.6H33.6zM34.8,14.4H36V15.6H34.8zM39.6,14.4H40.8V15.6H39.6zM40.8,14.4H42V15.6H40.8zM43.2,14.4H44.4V15.6H43.2zM49.2,14.4H50.4V15.6H49.2zM50.4,14.4H51.6V15.6H50.4zM51.6,14.4H52.8V15.6H51.6zM52.8,14.4H54V15.6H52.8zM54,14.4H55.2V15.6H54zM57.6,14.4H58.8V15.6H57.6zM8.4,15.6H9.6V16.8H8.4zM9.6,15.6H10.8V16.8H9.6zM10.8,15.6H12V16.8H10.8zM13.2,15.6H14.4V16.8H13.2zM14.4,15.6H15.6V16.8H14.4zM19.2,15.6H20.4V16.8H19.2zM21.6,15.6H22.8V16.8H21.6zM22.8,15.6H24V16.8H22.8zM24,15.6H25.2V16.8H24zM26.4,15.6H27.6V16.8H26.4zM30,15.6H31.2V16.8H30zM32.4,15.6H33.6V16.8H32.4zM33.6,15.6H34.8V16.8H33.6zM36,15.6H37.2V16.8H36zM39.6,15.6H40.8V16.8H39.6zM40.8,15.6H42V16.8H40.8zM42,15.6H43.2V16.8H42zM43.2,15.6H44.4V16.8H43.2zM44.4,15.6H45.6V16.8H44.4zM46.8,15.6H48V16.8H46.8zM48,15.6H49.2V16.8H48zM49.2,15.6H50.4V16.8H49.2zM50.4,15.6H51.6V16.8H50.4zM51.6,15.6H52.8V16.8H51.6zM52.8,15.6H54V16.8H52.8zM54,15.6H55.2V16.8H54zM55.2,15.6H56.4V16.8H55.2zM7.2,16.8H8.4V18H7.2zM9.6,16.8H10.8V18H9.6zM12,16.8H13.2V18H12zM13.2,16.8H14.4V18H13.2zM14.4,16.8H15.6V18H14.4zM15.6,16.8H16.8V18H15.6zM20.4,16.8H21.6V18H20.4zM22.8,16.8H24V18H22.8zM26.4,16.8H27.6V18H26.4zM27.6,16.8H28.8V18H27.6zM31.2,16.8H32.4V18H31.2zM32.4,16.8H33.6V18H32.4zM36,16.8H37.2V18H36zM38.4,16.8H39.6V18H38.4zM40.8,16.8H42V18H40.8zM44.4,16.8H45.6V18H44.4zM49.2,16.8H50.4V18H49.2zM50.4,16.8H51.6V18H50.4zM51.6,16.8H52.8V18H51.6zM52.8,16.8H54V18H52.8zM56.4,16.8H57.6V18H56.4zM4.8,18H6V19.2H4.8zM7.2,18H8.4V19.2H7.2zM8.4,18H9.6V19.2H8.4zM9.6,18H10.8V19.2H9.6zM10.8,18H12V19.2H10.8zM13.2,18H14.4V19.2H13.2zM18,18H19.2V19.2H18zM19.2,18H20.4V19.2H19.2zM24,18H25.2V19.2H24zM26.4,18H27.6V19.2H26.4zM31.2,18H32.4V19.2H31.2zM36,18H37.2V19.2H36zM37.2,18H38.4V19.2H37.2zM38.4,18H39.6V19.2H38.4zM39.6,18H40.8V19.2H39.6zM42,18H43.2V19.2H42zM43.2,18H44.4V19.2H43.2zM45.6,18H46.8V19.2H45.6zM46.8,18H48V19.2H46.8zM49.2,18H50.4V19.2H49.2zM50.4,18H51.6V19.2H50.4zM4.8,19.2H6V20.4H4.8zM6,19.2H7.2V20.4H6zM7.2,19.2H8.4V20.4H7.2zM9.6,19.2H10.8V20.4H9.6zM10.8,19.2H12V20.4H10.8zM12,19.2H13.2V20.4H12zM13.2,19.2H14.4V20.4H13.2zM14.4,19.2H15.6V20.4H14.4zM15.6,19.2H16.8V20.4H15.6zM16.8,19.2H18V20.4H16.8zM20.4,19.2H21.6V20.4H20.4zM24,19.2H25.2V20.4H24zM25.2,19.2H26.4V20.4H25.2zM26.4,19.2H27.6V20.4H26.4zM28.8,19.2H30V20.4H28.8zM31.2,19.2H32.4V20.4H31.2zM33.6,19.2H34.8V20.4H33.6zM36,19.2H37.2V20.4H36zM37.2,19.2H38.4V20.4H37.2zM38.4,19.2H39.6V20.4H38.4zM39.6,19.2H40.8V20.4H39.6zM40.8,19.2H42V20.4H40.8zM43.2,19.2H44.4V20.4H43.2zM50.4,19.2H51.6V20.4H50.4zM51.6,19.2H52.8V20.4H51.6zM54,19.2H55.2V20.4H54zM56.4,19.2H57.6V20.4H56.4zM4.8,20.4H6V21.6H4.8zM10.8,20.4H12V21.6H10.8zM13.2,20.4H14.4V21.6H13.2zM14.4,20.4H15.6V21.6H14.4zM15.6,20.4H16.8V21.6H15.6zM18,20.4H19.2V21.6H18zM19.2,20.4H20.4V21.6H19.2zM20.4,20.4H21.6V21.6H20.4zM22.8,20.4H24V21.6H22.8zM25.2,20.4H26.4V21.6H25.2zM27.6,20.4H28.8V21.6H27.6zM28.8,20.4H30V21.6H28.8zM30,20.4H31.2V21.6H30zM31.2,20.4H32.4V21.6H31.2zM32.4,20.4H33.6V21.6H32.4zM36,20.4H37.2V21.6H36zM38.4,20.4H39.6V21.6H38.4zM39.6,20.4H40.8V21.6H39.6zM40.8,20.4H42V21.6H40.8zM43.2,20.4H44.4V21.6H43.2zM44.4,20.4H45.6V21.6H44.4zM46.8,20.4H48V21.6H46.8zM48,20.4H49.2V21.6H48zM50.4,20.4H51.6V21.6H50.4zM52.8,20.4H54V21.6H52.8zM54,20.4H55.2V21.6H54zM55.2,20.4H56.4V21.6H55.2zM57.6,20.4H58.8V21.6H57.6zM4.8,21.6H6V22.8H4.8zM9.6,21.6H10.8V22.8H9.6zM10.8,21.6H12V22.8H10.8zM12,21.6H13.2V22.8H12zM15.6,21.6H16.8V22.8H15.6zM16.8,21.6H18V22.8H16.8zM18,21.6H19.2V22.8H18zM19.2,21.6H20.4V22.8H19.2zM21.6,21.6H22.8V22.8H21.6zM26.4,21.6H27.6V22.8H26.4zM28.8,21.6H30V22.8H28.8zM30,21.6H31.2V22.8H30zM34.8,21.6H36V22.8H34.8zM36,21.6H37.2V22.8H36zM39.6,21.6H40.8V22.8H39.6zM40.8,21.6H42V22.8H40.8zM42,21.6H43.2V22.8H42zM44.4,21.6H45.6V22.8H44.4zM46.8,21.6H48V22.8H46.8zM49.2,21.6H50.4V22.8H49.2zM50.4,21.6H51.6V22.8H50.4zM54,21.6H55.2V22.8H54zM56.4,21.6H57.6V22.8H56.4zM6,22.8H7.2V24H6zM7.2,22.8H8.4V24H7.2zM10.8,22.8H12V24H10.8zM13.2,22.8H14.4V24H13.2zM15.6,22.8H16.8V24H15.6zM16.8,22.8H18V24H16.8zM22.8,22.8H24V24H22.8zM25.2,22.8H26.4V24H25.2zM34.8,22.8H36V24H34.8zM37.2,22.8H38.4V24H37.2zM40.8,22.8H42V24H40.8zM42,22.8H43.2V24H42zM43.2,22.8H44.4V24H43.2zM44.4,22.8H45.6V24H44.4zM51.6,22.8H52.8V24H51.6zM56.4,22.8H57.6V24H56.4zM8.4,24H9.6V25.2H8.4zM9.6,24H10.8V25.2H9.6zM10.8,24H12V25.2H10.8zM12,24H13.2V25.2H12zM13.2,24H14.4V25.2H13.2zM22.8,24H24V25.2H22.8zM24,24H25.2V25.2H24zM26.4,24H27.6V25.2H26.4zM27.6,24H28.8V25.2H27.6zM28.8,24H30V25.2H28.8zM33.6,24H34.8V25.2H33.6zM34.8,24H36V25.2H34.8zM36,24H37.2V25.2H36zM37.2,24H38.4V25.2H37.2zM40.8,24H42V25.2H40.8zM43.2,24H44.4V25.2H43.2zM44.4,24H45.6V25.2H44.4zM46.8,24H48V25.2H46.8zM50.4,24H51.6V25.2H50.4zM51.6,24H52.8V25.2H51.6zM4.8,25.2H6V26.4H4.8zM6,25.2H7.2V26.4H6zM7.2,25.2H8.4V26.4H7.2zM8.4,25.2H9.6V26.4H8.4zM13.2,25.2H14.4V26.4H13.2zM14.4,25.2H15.6V26.4H14.4zM16.8,25.2H18V26.4H16.8zM18,25.2H19.2V26.4H18zM20.4,25.2H21.6V26.4H20.4zM22.8,25.2H24V26.4H22.8zM27.6,25.2H28.8V26.4H27.6zM30,25.2H31.2V26.4H30zM31.2,25.2H32.4V26.4H31.2zM32.4,25.2H33.6V26.4H32.4zM36,25.2H37.2V26.4H36zM37.2,25.2H38.4V26.4H37.2zM38.4,25.2H39.6V26.4H38.4zM39.6,25.2H40.8V26.4H39.6zM40.8,25.2H42V26.4H40.8zM43.2,25.2H44.4V26.4H43.2zM44.4,25.2H45.6V26.4H44.4zM46.8,25.2H48V26.4H46.8zM48,25.2H49.2V26.4H48zM50.4,25.2H51.6V26.4H50.4zM51.6,25.2H52.8V26.4H51.6zM52.8,25.2H54V26.4H52.8zM54,25.2H55.2V26.4H54zM4.8,26.4H6V27.6H4.8zM7.2,26.4H8.4V27.6H7.2zM8.4,26.4H9.6V27.6H8.4zM10.8,26.4H12V27.6H10.8zM12,26.4H13.2V27.6H12zM14.4,26.4H15.6V27.6H14.4zM15.6,26.4H16.8V27.6H15.6zM21.6,26.4H22.8V27.6H21.6zM24,26.4H25.2V27.6H24zM28.8,26.4H30V27.6H28.8zM34.8,26.4H36V27.6H34.8zM38.4,26.4H39.6V27.6H38.4zM39.6,26.4H40.8V27.6H39.6zM40.8,26.4H42V27.6H40.8zM44.4,26.4H45.6V27.6H44.4zM48,26.4H49.2V27.6H48zM50.4,26.4H51.6V27.6H50.4zM51.6,26.4H52.8V27.6H51.6zM52.8,26.4H54V27.6H52.8zM55.2,26.4H56.4V27.6H55.2zM56.4,26.4H57.6V27.6H56.4zM4.8,27.6H6V28.8H4.8zM7.2,27.6H8.4V28.8H7.2zM8.4,27.6H9.6V28.8H8.4zM9.6,27.6H10.8V28.8H9.6zM10.8,27.6H12V28.8H10.8zM13.2,27.6H14.4V28.8H13.2zM14.4,27.6H15.6V28.8H14.4zM18,27.6H19.2V28.8H18zM19.2,27.6H20.4V28.8H19.2zM21.6,27.6H22.8V28.8H21.6zM27.6,27.6H28.8V28.8H27.6zM31.2,27.6H32.4V28.8H31.2zM34.8,27.6H36V28.8H34.8zM36,27.6H37.2V28.8H36zM37.2,27.6H38.4V28.8H37.2zM40.8,27.6H42V28.8H40.8zM43.2,27.6H44.4V28.8H43.2zM48,27.6H49.2V28.8H48zM49.2,27.6H50.4V28.8H49.2zM56.4,27.6H57.6V28.8H56.4zM4.8,28.8H6V30H4.8zM7.2,28.8H8.4V30H7.2zM9.6,28.8H10.8V30H9.6zM10.8,28.8H12V30H10.8zM12,28.8H13.2V30H12zM13.2,28.8H14.4V30H13.2zM14.4,28.8H15.6V30H14.4zM15.6,28.8H16.8V30H15.6zM16.8,28.8H18V30H16.8zM19.2,28.8H20.4V30H19.2zM21.6,28.8H22.8V30H21.6zM22.8,28.8H24V30H22.8zM25.2,28.8H26.4V30H25.2zM26.4,28.8H27.6V30H26.4zM28.8,28.8H30V30H28.8zM30,28.8H31.2V30H30zM31.2,28.8H32.4V30H31.2zM32.4,28.8H33.6V30H32.4zM33.6,28.8H34.8V30H33.6zM34.8,28.8H36V30H34.8zM37.2,28.8H38.4V30H37.2zM39.6,28.8H40.8V30H39.6zM40.8,28.8H42V30H40.8zM43.2,28.8H44.4V30H43.2zM44.4,28.8H45.6V30H44.4zM46.8,28.8H48V30H46.8zM48,28.8H49.2V30H48zM49.2,28.8H50.4V30H49.2zM50.4,28.8H51.6V30H50.4zM51.6,28.8H52.8V30H51.6zM52.8,28.8H54V30H52.8zM57.6,28.8H58.8V30H57.6zM6,30H7.2V31.2H6zM7.2,30H8.4V31.2H7.2zM9.6,30H10.8V31.2H9.6zM14.4,30H15.6V31.2H14.4zM16.8,30H18V31.2H16.8zM19.2,30H20.4V31.2H19.2zM20.4,30H21.6V31.2H20.4zM21.6,30H22.8V31.2H21.6zM22.8,30H24V31.2H22.8zM25.2,30H26.4V31.2H25.2zM27.6,30H28.8V31.2H27.6zM28.8,30H30V31.2H28.8zM33.6,30H34.8V31.2H33.6zM37.2,30H38.4V31.2H37.2zM39.6,30H40.8V31.2H39.6zM40.8,30H42V31.2H40.8zM42,30H43.2V31.2H42zM44.4,30H45.6V31.2H44.4zM46.8,30H48V31.2H46.8zM48,30H49.2V31.2H48zM52.8,30H54V31.2H52.8zM54,30H55.2V31.2H54zM55.2,30H56.4V31.2H55.2zM4.8,31.2H6V32.4H4.8zM8.4,31.2H9.6V32.4H8.4zM9.6,31.2H10.8V32.4H9.6zM12,31.2H13.2V32.4H12zM14.4,31.2H15.6V32.4H14.4zM15.6,31.2H16.8V32.4H15.6zM21.6,31.2H22.8V32.4H21.6zM24,31.2H25.2V32.4H24zM25.2,31.2H26.4V32.4H25.2zM28.8,31.2H30V32.4H28.8zM31.2,31.2H32.4V32.4H31.2zM33.6,31.2H34.8V32.4H33.6zM38.4,31.2H39.6V32.4H38.4zM48,31.2H49.2V32.4H48zM50.4,31.2H51.6V32.4H50.4zM52.8,31.2H54V32.4H52.8zM54,31.2H55.2V32.4H54zM56.4,31.2H57.6V32.4H56.4zM4.8,32.4H6V33.6H4.8zM7.2,32.4H8.4V33.6H7.2zM8.4,32.4H9.6V33.6H8.4zM9.6,32.4H10.8V33.6H9.6zM14.4,32.4H15.6V33.6H14.4zM15.6,32.4H16.8V33.6H15.6zM16.8,32.4H18V33.6H16.8zM18,32.4H19.2V33.6H18zM20.4,32.4H21.6V33.6H20.4zM24,32.4H25.2V33.6H24zM27.6,32.4H28.8V33.6H27.6zM28.8,32.4H30V33.6H28.8zM33.6,32.4H34.8V33.6H33.6zM42,32.4H43.2V33.6H42zM43.2,32.4H44.4V33.6H43.2zM44.4,32.4H45.6V33.6H44.4zM46.8,32.4H48V33.6H46.8zM48,32.4H49.2V33.6H48zM52.8,32.4H54V33.6H52.8zM56.4,32.4H57.6V33.6H56.4zM57.6,32.4H58.8V33.6H57.6zM4.8,33.6H6V34.8H4.8zM6,33.6H7.2V34.8H6zM8.4,33.6H9.6V34.8H8.4zM9.6,33.6H10.8V34.8H9.6zM10.8,33.6H12V34.8H10.8zM12,33.6H13.2V34.8H12zM13.2,33.6H14.4V34.8H13.2zM14.4,33.6H15.6V34.8H14.4zM16.8,33.6H18V34.8H16.8zM18,33.6H19.2V34.8H18zM20.4,33.6H21.6V34.8H20.4zM22.8,33.6H24V34.8H22.8zM24,33.6H25.2V34.8H24zM26.4,33.6H27.6V34.8H26.4zM27.6,33.6H28.8V34.8H27.6zM28.8,33.6H30V34.8H28.8zM30,33.6H31.2V34.8H30zM31.2,33.6H32.4V34.8H31.2zM32.4,33.6H33.6V34.8H32.4zM33.6,33.6H34.8V34.8H33.6zM37.2,33.6H38.4V34.8H37.2zM39.6,33.6H40.8V34.8H39.6zM43.2,33.6H44.4V34.8H43.2zM48,33.6H49.2V34.8H48zM49.2,33.6H50.4V34.8H49.2zM50.4,33.6H51.6V34.8H50.4zM51.6,33.6H52.8V34.8H51.6zM52.8,33.6H54V34.8H52.8zM54,33.6H55.2V34.8H54zM4.8,34.8H6V36H4.8zM6,34.8H7.2V36H6zM7.2,34.8H8.4V36H7.2zM14.4,34.8H15.6V36H14.4zM18,34.8H19.2V36H18zM20.4,34.8H21.6V36H20.4zM21.6,34.8H22.8V36H21.6zM22.8,34.8H24V36H22.8zM24,34.8H25.2V36H24zM25.2,34.8H26.4V36H25.2zM26.4,34.8H27.6V36H26.4zM30,34.8H31.2V36H30zM31.2,34.8H32.4V36H31.2zM32.4,34.8H33.6V36H32.4zM36,34.8H37.2V36H36zM39.6,34.8H40.8V36H39.6zM40.8,34.8H42V36H40.8zM43.2,34.8H44.4V36H43.2zM44.4,34.8H45.6V36H44.4zM46.8,34.8H48V36H46.8zM49.2,34.8H50.4V36H49.2zM50.4,34.8H51.6V36H50.4zM55.2,34.8H56.4V36H55.2zM56.4,34.8H57.6V36H56.4zM4.8,36H6V37.2H4.8zM6,36H7.2V37.2H6zM7.2,36H8.4V37.2H7.2zM9.6,36H10.8V37.2H9.6zM10.8,36H12V37.2H10.8zM12,36H13.2V37.2H12zM13.2,36H14.4V37.2H13.2zM18,36H19.2V37.2H18zM19.2,36H20.4V37.2H19.2zM20.4,36H21.6V37.2H20.4zM21.6,36H22.8V37.2H21.6zM24,36H25.2V37.2H24zM25.2,36H26.4V37.2H25.2zM26.4,36H27.6V37.2H26.4zM32.4,36H33.6V37.2H32.4zM33.6,36H34.8V37.2H33.6zM36,36H37.2V37.2H36zM37.2,36H38.4V37.2H37.2zM39.6,36H40.8V37.2H39.6zM40.8,36H42V37.2H40.8zM42,36H43.2V37.2H42zM43.2,36H44.4V37.2H43.2zM44.4,36H45.6V37.2H44.4zM49.2,36H50.4V37.2H49.2zM52.8,36H54V37.2H52.8zM54,36H55.2V37.2H54zM55.2,36H56.4V37.2H55.2zM56.4,36H57.6V37.2H56.4zM6,37.2H7.2V38.4H6zM7.2,37.2H8.4V38.4H7.2zM9.6,37.2H10.8V38.4H9.6zM13.2,37.2H14.4V38.4H13.2zM14.4,37.2H15.6V38.4H14.4zM18,37.2H19.2V38.4H18zM19.2,37.2H20.4V38.4H19.2zM20.4,37.2H21.6V38.4H20.4zM21.6,37.2H22.8V38.4H21.6zM24,37.2H25.2V38.4H24zM28.8,37.2H30V38.4H28.8zM32.4,37.2H33.6V38.4H32.4zM34.8,37.2H36V38.4H34.8zM38.4,37.2H39.6V38.4H38.4zM42,37.2H43.2V38.4H42zM43.2,37.2H44.4V38.4H43.2zM44.4,37.2H45.6V38.4H44.4zM48,37.2H49.2V38.4H48zM50.4,37.2H51.6V38.4H50.4zM52.8,37.2H54V38.4H52.8zM7.2,38.4H8.4V39.6H7.2zM8.4,38.4H9.6V39.6H8.4zM12,38.4H13.2V39.6H12zM13.2,38.4H14.4V39.6H13.2zM14.4,38.4H15.6V39.6H14.4zM16.8,38.4H18V39.6H16.8zM18,38.4H19.2V39.6H18zM21.6,38.4H22.8V39.6H21.6zM24,38.4H25.2V39.6H24zM25.2,38.4H26.4V39.6H25.2zM27.6,38.4H28.8V39.6H27.6zM28.8,38.4H30V39.6H28.8zM30,38.4H31.2V39.6H30zM32.4,38.4H33.6V39.6H32.4zM33.6,38.4H34.8V39.6H33.6zM36,38.4H37.2V39.6H36zM40.8,38.4H42V39.6H40.8zM43.2,38.4H44.4V39.6H43.2zM44.4,38.4H45.6V39.6H44.4zM48,38.4H49.2V39.6H48zM49.2,38.4H50.4V39.6H49.2zM51.6,38.4H52.8V39.6H51.6zM52.8,38.4H54V39.6H52.8zM4.8,39.6H6V40.8H4.8zM6,39.6H7.2V40.8H6zM7.2,39.6H8.4V40.8H7.2zM8.4,39.6H9.6V40.8H8.4zM10.8,39.6H12V40.8H10.8zM13.2,39.6H14.4V40.8H13.2zM15.6,39.6H16.8V40.8H15.6zM18,39.6H19.2V40.8H18zM24,39.6H25.2V40.8H24zM25.2,39.6H26.4V40.8H25.2zM27.6,39.6H28.8V40.8H27.6zM31.2,39.6H32.4V40.8H31.2zM32.4,39.6H33.6V40.8H32.4zM36,39.6H37.2V40.8H36zM37.2,39.6H38.4V40.8H37.2zM40.8,39.6H42V40.8H40.8zM42,39.6H43.2V40.8H42zM44.4,39.6H45.6V40.8H44.4zM48,39.6H49.2V40.8H48zM49.2,39.6H50.4V40.8H49.2zM51.6,39.6H52.8V40.8H51.6zM54,39.6H55.2V40.8H54zM56.4,39.6H57.6V40.8H56.4zM4.8,40.8H6V42H4.8zM8.4,40.8H9.6V42H8.4zM12,40.8H13.2V42H12zM20.4,40.8H21.6V42H20.4zM21.6,40.8H22.8V42H21.6zM27.6,40.8H28.8V42H27.6zM32.4,40.8H33.6V42H32.4zM36,40.8H37.2V42H36zM37.2,40.8H38.4V42H37.2zM38.4,40.8H39.6V42H38.4zM39.6,40.8H40.8V42H39.6zM42,40.8H43.2V42H42zM46.8,40.8H48V42H46.8zM51.6,40.8H52.8V42H51.6zM52.8,40.8H54V42H52.8zM56.4,40.8H57.6V42H56.4zM4.8,42H6V43.2H4.8zM6,42H7.2V43.2H6zM8.4,42H9.6V43.2H8.4zM9.6,42H10.8V43.2H9.6zM13.2,42H14.4V43.2H13.2zM14.4,42H15.6V43.2H14.4zM18,42H19.2V43.2H18zM24,42H25.2V43.2H24zM25.2,42H26.4V43.2H25.2zM27.6,42H28.8V43.2H27.6zM28.8,42H30V43.2H28.8zM30,42H31.2V43.2H30zM33.6,42H34.8V43.2H33.6zM34.8,42H36V43.2H34.8zM36,42H37.2V43.2H36zM37.2,42H38.4V43.2H37.2zM39.6,42H40.8V43.2H39.6zM40.8,42H42V43.2H40.8zM43.2,42H44.4V43.2H43.2zM45.6,42H46.8V43.2H45.6zM48,42H49.2V43.2H48zM50.4,42H51.6V43.2H50.4zM51.6,42H52.8V43.2H51.6zM52.8,42H54V43.2H52.8zM4.8,43.2H6V44.4H4.8zM6,43.2H7.2V44.4H6zM8.4,43.2H9.6V44.4H8.4zM9.6,43.2H10.8V44.4H9.6zM10.8,43.2H12V44.4H10.8zM12,43.2H13.2V44.4H12zM13.2,43.2H14.4V44.4H13.2zM14.4,43.2H15.6V44.4H14.4zM20.4,43.2H21.6V44.4H20.4zM22.8,43.2H24V44.4H22.8zM26.4,43.2H27.6V44.4H26.4zM28.8,43.2H30V44.4H28.8zM30,43.2H31.2V44.4H30zM37.2,43.2H38.4V44.4H37.2zM39.6,43.2H40.8V44.4H39.6zM40.8,43.2H42V44.4H40.8zM43.2,43.2H44.4V44.4H43.2zM44.4,43.2H45.6V44.4H44.4zM45.6,43.2H46.8V44.4H45.6zM49.2,43.2H50.4V44.4H49.2zM50.4,43.2H51.6V44.4H50.4zM52.8,43.2H54V44.4H52.8zM54,43.2H55.2V44.4H54zM55.2,43.2H56.4V44.4H55.2zM57.6,43.2H58.8V44.4H57.6zM6,44.4H7.2V45.6H6zM7.2,44.4H8.4V45.6H7.2zM9.6,44.4H10.8V45.6H9.6zM14.4,44.4H15.6V45.6H14.4zM21.6,44.4H22.8V45.6H21.6zM25.2,44.4H26.4V45.6H25.2zM31.2,44.4H32.4V45.6H31.2zM32.4,44.4H33.6V45.6H32.4zM36,44.4H37.2V45.6H36zM37.2,44.4H38.4V45.6H37.2zM39.6,44.4H40.8V45.6H39.6zM40.8,44.4H42V45.6H40.8zM42,44.4H43.2V45.6H42zM43.2,44.4H44.4V45.6H43.2zM44.4,44.4H45.6V45.6H44.4zM49.2,44.4H50.4V45.6H49.2zM51.6,44.4H52.8V45.6H51.6zM55.2,44.4H56.4V45.6H55.2zM9.6,45.6H10.8V46.8H9.6zM12,45.6H13.2V46.8H12zM13.2,45.6H14.4V46.8H13.2zM15.6,45.6H16.8V46.8H15.6zM16.8,45.6H18V46.8H16.8zM19.2,45.6H20.4V46.8H19.2zM21.6,45.6H22.8V46.8H21.6zM25.2,45.6H26.4V46.8H25.2zM26.4,45.6H27.6V46.8H26.4zM28.8,45.6H30V46.8H28.8zM30,45.6H31.2V46.8H30zM31.2,45.6H32.4V46.8H31.2zM32.4,45.6H33.6V46.8H32.4zM33.6,45.6H34.8V46.8H33.6zM36,45.6H37.2V46.8H36zM37.2,45.6H38.4V46.8H37.2zM39.6,45.6H40.8V46.8H39.6zM40.8,45.6H42V46.8H40.8zM44.4,45.6H45.6V46.8H44.4zM46.8,45.6H48V46.8H46.8zM49.2,45.6H50.4V46.8H49.2zM55.2,45.6H56.4V46.8H55.2zM56.4,45.6H57.6V46.8H56.4zM6,46.8H7.2V48H6zM7.2,46.8H8.4V48H7.2zM8.4,46.8H9.6V48H8.4zM9.6,46.8H10.8V48H9.6zM13.2,46.8H14.4V48H13.2zM14.4,46.8H15.6V48H14.4zM16.8,46.8H18V48H16.8zM25.2,46.8H26.4V48H25.2zM27.6,46.8H28.8V48H27.6zM31.2,46.8H32.4V48H31.2zM37.2,46.8H38.4V48H37.2zM40.8,46.8H42V48H40.8zM42,46.8H43.2V48H42zM43.2,46.8H44.4V48H43.2zM45.6,46.8H46.8V48H45.6zM50.4,46.8H51.6V48H50.4zM57.6,46.8H58.8V48H57.6zM4.8,48H6V49.2H4.8zM8.4,48H9.6V49.2H8.4zM9.6,48H10.8V49.2H9.6zM12,48H13.2V49.2H12zM15.6,48H16.8V49.2H15.6zM16.8,48H18V49.2H16.8zM18,48H19.2V49.2H18zM19.2,48H20.4V49.2H19.2zM21.6,48H22.8V49.2H21.6zM22.8,48H24V49.2H22.8zM26.4,48H27.6V49.2H26.4zM27.6,48H28.8V49.2H27.6zM28.8,48H30V49.2H28.8zM30,48H31.2V49.2H30zM31.2,48H32.4V49.2H31.2zM32.4,48H33.6V49.2H32.4zM33.6,48H34.8V49.2H33.6zM36,48H37.2V49.2H36zM37.2,48H38.4V49.2H37.2zM39.6,48H40.8V49.2H39.6zM43.2,48H44.4V49.2H43.2zM48,48H49.2V49.2H48zM49.2,48H50.4V49.2H49.2zM50.4,48H51.6V49.2H50.4zM51.6,48H52.8V49.2H51.6zM52.8,48H54V49.2H52.8zM57.6,48H58.8V49.2H57.6zM14.4,49.2H15.6V50.4H14.4zM15.6,49.2H16.8V50.4H15.6zM18,49.2H19.2V50.4H18zM19.2,49.2H20.4V50.4H19.2zM26.4,49.2H27.6V50.4H26.4zM27.6,49.2H28.8V50.4H27.6zM28.8,49.2H30V50.4H28.8zM33.6,49.2H34.8V50.4H33.6zM34.8,49.2H36V50.4H34.8zM36,49.2H37.2V50.4H36zM37.2,49.2H38.4V50.4H37.2zM39.6,49.2H40.8V50.4H39.6zM40.8,49.2H42V50.4H40.8zM42,49.2H43.2V50.4H42zM43.2,49.2H44.4V50.4H43.2zM44.4,49.2H45.6V50.4H44.4zM46.8,49.2H48V50.4H46.8zM48,49.2H49.2V50.4H48zM52.8,49.2H54V50.4H52.8zM54,49.2H55.2V50.4H54zM55.2,49.2H56.4V50.4H55.2zM56.4,49.2H57.6V50.4H56.4zM4.8,50.4H6V51.6H4.8zM6,50.4H7.2V51.6H6zM7.2,50.4H8.4V51.6H7.2zM8.4,50.4H9.6V51.6H8.4zM9.6,50.4H10.8V51.6H9.6zM10.8,50.4H12V51.6H10.8zM12,50.4H13.2V51.6H12zM14.4,50.4H15.6V51.6H14.4zM15.6,50.4H16.8V51.6H15.6zM16.8,50.4H18V51.6H16.8zM20.4,50.4H21.6V51.6H20.4zM21.6,50.4H22.8V51.6H21.6zM22.8,50.4H24V51.6H22.8zM25.2,50.4H26.4V51.6H25.2zM26.4,50.4H27.6V51.6H26.4zM27.6,50.4H28.8V51.6H27.6zM28.8,50.4H30V51.6H28.8zM31.2,50.4H32.4V51.6H31.2zM33.6,50.4H34.8V51.6H33.6zM34.8,50.4H36V51.6H34.8zM39.6,50.4H40.8V51.6H39.6zM40.8,50.4H42V51.6H40.8zM43.2,50.4H44.4V51.6H43.2zM44.4,50.4H45.6V51.6H44.4zM48,50.4H49.2V51.6H48zM50.4,50.4H51.6V51.6H50.4zM52.8,50.4H54V51.6H52.8zM54,50.4H55.2V51.6H54zM56.4,50.4H57.6V51.6H56.4zM4.8,51.6H6V52.8H4.8zM12,51.6H13.2V52.8H12zM16.8,51.6H18V52.8H16.8zM18,51.6H19.2V52.8H18zM21.6,51.6H22.8V52.8H21.6zM24,51.6H25.2V52.8H24zM27.6,51.6H28.8V52.8H27.6zM28.8,51.6H30V52.8H28.8zM33.6,51.6H34.8V52.8H33.6zM34.8,51.6H36V52.8H34.8zM36,51.6H37.2V52.8H36zM37.2,51.6H38.4V52.8H37.2zM40.8,51.6H42V52.8H40.8zM42,51.6H43.2V52.8H42zM43.2,51.6H44.4V52.8H43.2zM45.6,51.6H46.8V52.8H45.6zM48,51.6H49.2V52.8H48zM52.8,51.6H54V52.8H52.8zM56.4,51.6H57.6V52.8H56.4zM57.6,51.6H58.8V52.8H57.6zM4.8,52.8H6V54H4.8zM7.2,52.8H8.4V54H7.2zM8.4,52.8H9.6V54H8.4zM9.6,52.8H10.8V54H9.6zM12,52.8H13.2V54H12zM14.4,52.8H15.6V54H14.4zM16.8,52.8H18V54H16.8zM18,52.8H19.2V54H18zM20.4,52.8H21.6V54H20.4zM24,52.8H25.2V54H24zM25.2,52.8H26.4V54H25.2zM27.6,52.8H28.8V54H27.6zM28.8,52.8H30V54H28.8zM30,52.8H31.2V54H30zM31.2,52.8H32.4V54H31.2zM32.4,52.8H33.6V54H32.4zM33.6,52.8H34.8V54H33.6zM37.2,52.8H38.4V54H37.2zM40.8,52.8H42V54H40.8zM42,52.8H43.2V54H42zM43.2,52.8H44.4V54H43.2zM44.4,52.8H45.6V54H44.4zM46.8,52.8H48V54H46.8zM48,52.8H49.2V54H48zM49.2,52.8H50.4V54H49.2zM50.4,52.8H51.6V54H50.4zM51.6,52.8H52.8V54H51.6zM52.8,52.8H54V54H52.8zM54,52.8H55.2V54H54zM56.4,52.8H57.6V54H56.4zM57.6,52.8H58.8V54H57.6zM4.8,54H6V55.2H4.8zM7.2,54H8.4V55.2H7.2zM8.4,54H9.6V55.2H8.4zM9.6,54H10.8V55.2H9.6zM12,54H13.2V55.2H12zM22.8,54H24V55.2H22.8zM24,54H25.2V55.2H24zM25.2,54H26.4V55.2H25.2zM26.4,54H27.6V55.2H26.4zM33.6,54H34.8V55.2H33.6zM36,54H37.2V55.2H36zM37.2,54H38.4V55.2H37.2zM38.4,54H39.6V55.2H38.4zM39.6,54H40.8V55.2H39.6zM40.8,54H42V55.2H40.8zM42,54H43.2V55.2H42zM44.4,54H45.6V55.2H44.4zM52.8,54H54V55.2H52.8zM55.2,54H56.4V55.2H55.2zM56.4,54H57.6V55.2H56.4zM4.8,55.2H6V56.4H4.8zM7.2,55.2H8.4V56.4H7.2zM8.4,55.2H9.6V56.4H8.4zM9.6,55.2H10.8V56.4H9.6zM12,55.2H13.2V56.4H12zM15.6,55.2H16.8V56.4H15.6zM20.4,55.2H21.6V56.4H20.4zM21.6,55.2H22.8V56.4H21.6zM24,55.2H25.2V56.4H24zM26.4,55.2H27.6V56.4H26.4zM31.2,55.2H32.4V56.4H31.2zM33.6,55.2H34.8V56.4H33.6zM36,55.2H37.2V56.4H36zM38.4,55.2H39.6V56.4H38.4zM39.6,55.2H40.8V56.4H39.6zM40.8,55.2H42V56.4H40.8zM42,55.2H43.2V56.4H42zM43.2,55.2H44.4V56.4H43.2zM49.2,55.2H50.4V56.4H49.2zM52.8,55.2H54V56.4H52.8zM55.2,55.2H56.4V56.4H55.2zM56.4,55.2H57.6V56.4H56.4zM4.8,56.4H6V57.6H4.8zM12,56.4H13.2V57.6H12zM18,56.4H19.2V57.6H18zM19.2,56.4H20.4V57.6H19.2zM26.4,56.4H27.6V57.6H26.4zM27.6,56.4H28.8V57.6H27.6zM28.8,56.4H30V57.6H28.8zM31.2,56.4H32.4V57.6H31.2zM33.6,56.4H34.8V57.6H33.6zM34.8,56.4H36V57.6H34.8zM36,56.4H37.2V57.6H36zM37.2,56.4H38.4V57.6H37.2zM38.4,56.4H39.6V57.6H38.4zM40.8,56.4H42V57.6H40.8zM43.2,56.4H44.4V57.6H43.2zM45.6,56.4H46.8V57.6H45.6zM49.2,56.4H50.4V57.6H49.2zM4.8,57.6H6V58.8H4.8zM6,57.6H7.2V58.8H6zM7.2,57.6H8.4V58.8H7.2zM8.4,57.6H9.6V58.8H8.4zM9.6,57.6H10.8V58.8H9.6zM10.8,57.6H12V58.8H10.8zM12,57.6H13.2V58.8H12zM14.4,57.6H15.6V58.8H14.4zM18,57.6H19.2V58.8H18zM20.4,57.6H21.6V58.8H20.4zM21.6,57.6H22.8V58.8H21.6zM25.2,57.6H26.4V58.8H25.2zM26.4,57.6H27.6V58.8H26.4zM28.8,57.6H30V58.8H28.8zM30,57.6H31.2V58.8H30zM33.6,57.6H34.8V58.8H33.6zM36,57.6H37.2V58.8H36zM37.2,57.6H38.4V58.8H37.2zM38.4,57.6H39.6V58.8H38.4zM42,57.6H43.2V58.8H42zM43.2,57.6H44.4V58.8H43.2zM46.8,57.6H48V58.8H46.8zM48,57.6H49.2V58.8H48zM51.6,57.6H52.8V58.8H51.6zM52.8,57.6H54V58.8H52.8zM57.6,57.6H58.8V58.8H57.6z" id="qr-path" fill="#000000" fill-opacity="1" fill-rule="nonzero" stroke="none" /></svg>